<svg width="327" height="112" viewBox="0 0 327 112" fill="none" xmlns="http://www.w3.org/2000/svg">
<g clip-path="url(#clip0_2118_1542)">
<rect width="340" height="205.022" transform="translate(0 -55)" fill="#201E1E"/>
<path fill-rule="evenodd" clip-rule="evenodd" d="M-267.361 -13.749C-269.36 -12.4356 -270.484 -10.1399 -270.287 -7.75648C-270.196 -6.67892 -269.832 -5.62764 -269.235 -4.71904L-266.408 -0.427661C-267.018 0.702953 -267.305 2.00357 -267.198 3.31611C-267.095 4.522 -266.668 5.67831 -265.956 6.66864L-263.252 10.4205C-263.922 11.6055 -264.233 12.9801 -264.118 14.3856L-264.118 14.3815C-264.007 15.7204 -263.511 16.9894 -262.68 18.0527L-260.124 21.322C-260.836 22.5588 -261.171 23.9996 -261.05 25.4567L-261.054 25.4572C-260.93 26.9285 -260.361 28.3057 -259.405 29.4409L-257.035 32.2509C-257.777 33.5255 -258.117 35.0062 -257.991 36.5248C-257.857 38.1373 -257.212 39.622 -256.126 40.8245L-253.963 43.215C-254.719 44.5269 -255.068 46.047 -254.939 47.5979C-254.796 49.3223 -254.056 50.9584 -252.851 52.2086L-250.92 54.2082C-251.679 55.5501 -252.029 57.101 -251.897 58.668C-251.744 60.5294 -250.92 62.2762 -249.576 63.5885L-247.894 65.2273C-248.643 66.593 -248.987 68.1644 -248.858 69.7427C-248.691 71.7489 -247.782 73.6022 -246.297 74.9679L-244.889 76.2639C-245.628 77.6456 -245.955 79.2109 -245.824 80.8139L-245.824 80.8098C-245.648 82.9613 -244.652 84.9294 -243.023 86.3479L-241.899 87.3276C-242.614 88.721 -242.928 90.2879 -242.798 91.8861C-242.607 94.1824 -241.523 96.2565 -239.748 97.7278L-238.923 98.4115C-239.607 99.8127 -239.905 101.376 -239.776 102.959C-239.575 105.367 -238.373 107.61 -236.474 109.108L-235.957 109.516C-236.607 110.917 -236.888 112.471 -236.758 114.032C-236.546 116.59 -235.247 118.942 -233.2 120.484L-232.996 120.637C-233.609 122.036 -233.871 123.573 -233.744 125.11L-233.74 125.109C-233.522 127.764 -232.175 130.186 -230.043 131.777C-230.614 133.164 -230.855 134.676 -230.73 136.184C-230.509 138.853 -229.193 141.276 -227.095 142.91C-227.633 144.283 -227.85 145.756 -227.725 147.259C-227.5 149.946 -226.212 152.374 -224.144 154.052C-224.644 155.411 -224.842 156.86 -224.719 158.333L-224.724 158.33C-224.498 161.039 -223.232 163.475 -221.194 165.192C-221.662 166.536 -221.843 167.963 -221.722 169.409L-221.718 169.409C-221.498 172.091 -220.227 174.575 -218.235 176.329C-218.67 177.661 -218.836 179.066 -218.721 180.485L-218.725 180.485C-218.498 183.183 -217.249 185.678 -215.281 187.471C-215.688 188.787 -215.839 190.169 -215.723 191.56C-215.5 194.28 -214.27 196.78 -212.325 198.607C-212.705 199.908 -212.844 201.27 -212.73 202.637L-212.735 202.637C-212.507 205.375 -211.293 207.889 -209.368 209.751C-209.722 211.034 -209.849 212.373 -209.737 213.713C-209.509 216.47 -208.315 218.995 -206.414 220.889C-206.744 222.157 -206.859 223.476 -206.752 224.795L-206.752 224.791C-206.416 228.832 -204.07 232.363 -200.477 234.24L117.596 400.45C120.382 401.906 123.573 402.196 126.578 401.258C129.585 400.323 132.044 398.277 133.504 395.495L300.289 78.1871C301.328 76.2081 301.779 73.9894 301.598 71.7714C301.266 67.7337 298.92 64.1987 295.326 62.3216L-22.746 -103.888C-24.3503 -104.727 -26.0887 -105.177 -27.8489 -105.23C-29.0113 -105.653 -30.2242 -105.883 -31.4481 -105.915C-32.6229 -106.346 -33.8387 -106.568 -35.0474 -106.595C-36.208 -107.031 -37.4254 -107.263 -38.6556 -107.286C-39.8091 -107.725 -41.0218 -107.957 -42.2484 -107.976C-43.4108 -108.423 -44.6229 -108.648 -45.8281 -108.663C-46.988 -109.122 -48.2174 -109.36 -49.4632 -109.366C-50.5978 -109.818 -51.8029 -110.052 -53.0264 -110.057C-54.1742 -110.526 -55.3993 -110.764 -56.6439 -110.761C-57.7777 -111.229 -58.992 -111.466 -60.2284 -111.458C-61.3813 -111.944 -62.6053 -112.175 -63.8215 -112.163C-64.9697 -112.657 -66.1945 -112.89 -67.4114 -112.874C-68.5379 -113.37 -69.7619 -113.616 -71.0153 -113.59C-72.1514 -114.097 -73.3744 -114.333 -74.5893 -114.305C-75.7043 -114.821 -76.931 -115.074 -78.1936 -115.036C-79.2459 -115.529 -80.4047 -115.782 -81.6015 -115.768C-81.6648 -115.767 -81.728 -115.765 -81.791 -115.763C-82.9143 -116.299 -84.1455 -116.543 -85.3681 -116.495C-86.4887 -117.044 -87.7259 -117.294 -88.9545 -117.239C-90.0693 -117.799 -91.3091 -118.054 -92.5408 -117.991C-93.6475 -118.56 -94.8872 -118.819 -96.1196 -118.749C-97.2183 -119.329 -98.4589 -119.593 -99.6931 -119.518C-101.745 -120.631 -104.332 -120.611 -106.417 -119.245L-267.361 -13.749ZM-101.406 -119.187C-102.887 -119.575 -104.523 -119.359 -105.902 -118.456L-266.838 -12.9609C-268.551 -11.8387 -269.512 -9.8737 -269.341 -7.83453C-269.267 -6.91413 -268.956 -6.01531 -268.442 -5.23851L-265.848 -1.29927C-265.449 -1.82613 -264.97 -2.29717 -264.421 -2.69109L-103.198 -118.271C-102.635 -118.675 -102.031 -118.979 -101.406 -119.187ZM-265.297 -0.46328C-264.919 -1.02098 -264.439 -1.5174 -263.867 -1.92776L-102.653 -117.511C-101.817 -118.109 -100.874 -118.453 -99.9174 -118.558C-99.6116 -118.372 -99.3216 -118.157 -99.0526 -117.911C-99.3725 -117.736 -99.6825 -117.533 -99.9794 -117.302L-260.157 7.34009L-265.297 -0.46328ZM-265.812 0.477508C-266.178 1.32804 -266.336 2.27018 -266.257 3.23859C-266.171 4.27493 -265.802 5.27106 -265.191 6.12345L-262.697 9.58577C-262.347 9.13606 -261.939 8.72579 -261.476 8.36632L-260.907 7.92353L-265.812 0.477508ZM-260.389 8.71033L-260.896 9.10538C-261.372 9.47544 -261.783 9.90821 -262.119 10.3868L-256.71 17.895L-255.182 16.6134L-260.389 8.71033ZM-254.663 17.4013L-256.16 18.6574L-250.769 26.1405L-249.6 25.0883L-254.663 17.4013ZM-248.888 24.4482L-253.934 16.7887L-96.9135 -114.973L-95.8184 -113.311L-248.888 24.4482ZM-249.076 25.8828L-250.216 26.9082L-244.982 34.1716L-244.146 33.3678L-249.076 25.8828ZM-243.452 32.7017L-248.365 25.2428L-95.2938 -112.514L-94.1229 -110.737L-243.452 32.7017ZM-243.619 34.1675L-244.426 34.9432L-239.336 42.0082L-238.809 41.4697L-243.619 34.1675ZM-238.132 40.7788L-242.925 33.5014L-93.5961 -109.937L-92.3535 -108.05L-238.132 40.7788ZM-238.279 42.2731L-238.778 42.7825L-233.821 49.6627L-233.582 49.4041L-238.279 42.2731ZM-232.921 48.6899L-237.603 41.5823L-91.8242 -107.247L-90.5183 -105.264L-232.921 48.6899ZM-233.049 50.2134L-233.26 50.4416L-229.043 56.2936L-233.049 50.2134ZM-227.81 56.4492L-232.388 49.4992L-89.9839 -104.453L-88.6194 -102.381L-227.81 56.4492ZM-222.794 64.064L-227.275 57.2623L-88.0853 -101.571L-86.6626 -99.4107L-222.794 64.064ZM-217.868 71.543L-222.255 64.8827L-86.1206 -98.5877L-84.6538 -96.361L-217.868 71.543ZM-215.867 74.5813L-217.322 72.3725L-84.1061 -95.5295L-82.5913 -93.2297L-212.883 78.7229L-215.867 74.5813ZM-200.81 97.4411L-201.963 95.6902L-200.116 98.0518L-199.07 99.5043L-200.81 97.4411ZM-201.533 98.055L-199.481 101.171L-199.812 101.667L-204.571 96.4057L-203.827 95.3355L-201.533 98.055ZM-208.285 87.8059L-205.961 91.3338L-208.586 88.2213L-208.285 87.8059ZM-209.116 86.5433L-208.839 86.9639L-209.212 87.4784L-214.017 81.7814L-213.438 81.0171L-209.116 86.5433ZM-216.68 75.0616L-215.501 76.8511L-218.169 73.4401L-218.001 73.2283L-216.68 75.0616ZM-198.919 102.023L-197.391 104.343L-199.162 102.386L-198.919 102.023ZM-194.343 107.259L-196.385 104.159L-194.095 106.874L-194.343 107.259ZM-193.244 108.928L-193.776 108.12L-193.459 107.627L-191.797 109.599L-189.236 113.153L-189.312 113.275L-193.244 108.928ZM-193.977 109.526L-194.388 109.071L-195.287 110.469L-190.588 115.335L-190.376 114.992L-193.977 109.526ZM-189.805 115.859L-189.913 116.034L-189.209 116.764L-189.805 115.859ZM-185.665 120.434L-189.259 114.978L-189.172 114.838L-184.71 119.77L-185.321 120.79L-185.665 120.434ZM-186.393 121.038L-185.909 121.773L-186.866 123.373L-191.602 118.759L-190.426 116.862L-186.393 121.038ZM-185.331 122.65L-181.491 128.479L-181.54 128.563L-186.17 124.052L-185.331 122.65ZM-180.965 127.569L-182.85 124.708L-180.636 127L-180.965 127.569ZM-178.108 131.907L-180.385 128.45L-179.955 127.706L-175.541 132.277L-176.312 133.656L-178.108 131.907ZM-178.831 132.518L-177.125 135.108L-177.948 136.579L-182.607 132.293L-181.329 130.084L-178.831 132.518ZM-176.541 135.994L-173.398 140.766L-177.235 137.235L-176.541 135.994ZM-172.297 140.729L-175.689 135.579L-171.643 139.522L-172.297 140.729ZM-170.543 143.393L-171.71 141.621L-170.942 140.204L-166.929 144.114L-166.627 144.534L-167.499 146.193L-170.543 143.393ZM-171.263 144.006L-172.424 142.938L-173.785 145.45L-169.206 149.441L-168.53 148.154L-171.263 144.006ZM-168.031 147.205L-168.408 146.633L-167.951 147.053L-168.031 147.205ZM-167.937 149.055L-168.475 150.078L-165.629 152.559L-167.937 149.055ZM-162.989 154.86L-167.438 148.106L-167.232 147.715L-158.638 155.623L-157.159 157.675C-158.162 157.838 -159.188 157.725 -160.123 157.358L-162.989 154.86ZM-163.695 155.494L-163.527 155.75C-162.794 156.864 -161.776 157.68 -160.631 158.165L-150.348 167.128L-150.143 167.414C-149.453 168.371 -148.556 169.092 -147.556 169.562L-136.983 178.778L-136.75 179.076C-136.119 179.884 -135.341 180.514 -134.484 180.957L-123.635 190.413L-123.367 190.731C-122.803 191.4 -122.141 191.939 -121.419 192.345L-110.251 202.08L-109.97 202.39C-109.489 202.922 -108.947 203.367 -108.363 203.725L-96.9526 213.671L-96.591 214.045C-96.1898 214.46 -95.7518 214.82 -95.287 215.123L-83.5521 225.351L-83.1952 225.699C-82.9 225.986 -82.5876 226.246 -82.2613 226.477L-71.5901 235.778L-170.473 153.879L-168.925 150.936L-163.695 155.494ZM-158.626 158.663C-157.939 158.722 -157.239 158.674 -156.556 158.513L-152.768 163.769L-158.626 158.663ZM-154.841 157.839L-149.556 162.702L-153.852 157.208L-154.477 157.617C-154.597 157.696 -154.718 157.77 -154.841 157.839ZM-152.829 156.537L-149.337 159.941L-152.429 156.275L-152.829 156.537ZM-153.058 155.563L-153.519 155.865L-154.303 155.101L-157.711 150.744L-153.058 155.563ZM-151.164 155.446L-140.857 166.839L-140.276 167.442L19.911 52.6017C21.5772 51.406 22.4678 49.4792 22.3006 47.4354L22.2965 47.4359C22.211 46.3996 21.8417 45.4034 21.2314 44.5552L-56.3823 -63.1726L-58.7234 -58.7187L8.3418 43.0953C8.9388 44.0039 9.30261 45.0552 9.39274 46.1286C9.59047 48.5121 8.47062 50.8114 6.46296 52.1217L-151.164 155.446ZM-59.2275 -57.7597L7.54441 43.6112C8.05765 44.388 8.37271 45.2863 8.4476 46.2067L8.45224 46.2103C8.61894 48.25 7.65776 50.215 5.94507 51.3413L-151.802 154.74L-161.866 143.615L-163.844 141.269L-59.2275 -57.7597ZM-59.3179 -59.6211L-57.0003 -64.0304L-58.8567 -66.6071L-61.142 -62.3903L-59.3179 -59.6211ZM-61.6547 -61.4444L-59.822 -58.6621L-164.502 140.49L-168.517 135.729L-61.6547 -61.4444ZM-61.7292 -63.2818L-59.4675 -67.4549L-61.3011 -69.9999L-63.53 -66.0157L-61.7292 -63.2818ZM-64.0516 -65.0834L-62.2419 -62.3359L-169.168 134.957L-173.252 130.115L-64.0516 -65.0834ZM-64.1135 -66.9014L-61.9084 -70.8429L-63.7167 -73.3528L-65.8885 -69.5962L-64.1135 -66.9014ZM-66.4193 -68.678L-64.635 -65.9691L-173.901 129.346L-178.055 124.42L-66.4193 -68.678ZM-66.4705 -70.4798L-64.3231 -74.1944L-66.1062 -76.6694L-68.2199 -73.1356L-66.4705 -70.4798ZM-68.7604 -72.2321L-67.0013 -69.5616L-178.702 123.654L-181.399 120.455L-182.883 118.558L-68.7604 -72.2321ZM-68.7954 -74.0092L-66.706 -77.502L-68.462 -79.9393L-70.5171 -76.6231L-68.7954 -74.0092ZM-71.0676 -75.7348L-69.3358 -73.1057L-183.508 117.759L-187.678 112.427L-71.0676 -75.7348ZM-71.0887 -77.4907L-69.0583 -80.767L-70.7808 -83.1577L-72.7768 -80.0536L-71.0887 -77.4907ZM-73.3377 -79.1813L-71.6391 -76.6025L-188.296 111.636L-192.544 106.204L-73.3377 -79.1813ZM-73.3463 -80.918L-71.3754 -83.9831L-73.068 -86.3325L-75.0041 -83.4349L-73.3463 -80.918ZM-75.5759 -82.5791L-73.9071 -80.0457L-193.159 105.418L-197.489 99.8821L-75.5759 -82.5791ZM-75.5669 -84.2893L-73.6563 -87.1489L-75.3166 -89.4535L-77.1922 -86.7566L-75.5669 -84.2893ZM-77.7753 -85.9182L-76.1387 -83.4335L-198.099 99.1023L-199.376 97.4698L-202.396 93.2779L-77.7753 -85.9182ZM-77.7484 -87.6011L-75.8985 -90.2611L-77.5205 -92.5125L-79.3352 -90.0101L-77.7484 -87.6011ZM-79.9302 -89.1897L-78.3315 -86.7627L-202.979 92.4685L-207.308 86.4597L-79.9302 -89.1897ZM-79.8885 -90.85L-78.0998 -93.3165L-79.6817 -95.5123L-81.4352 -93.1981L-79.8885 -90.85ZM-82.0425 -92.3966L-80.4834 -90.0296L-207.889 85.6537L-212.306 79.5231L-82.0425 -92.3966ZM-81.984 -94.0312L-80.2569 -96.3106L-81.7938 -98.4438L-83.4858 -96.3112L-81.984 -94.0312ZM-84.0336 -97.1428L-82.3685 -99.2415L-83.8563 -101.307L-85.4867 -99.3488L-84.0336 -97.1428ZM-86.0288 -100.172L-84.4257 -102.097L-85.8688 -104.1L-87.4373 -102.31L-86.0288 -100.172ZM-87.9714 -103.121L-86.4303 -104.879L-87.8136 -106.799L-89.3209 -105.17L-87.9714 -103.121ZM-89.8554 -105.981L-88.3762 -107.58L-89.6991 -109.416L-91.1455 -107.94L-89.8554 -105.981ZM-91.6748 -108.743L-90.2569 -110.191L-91.5146 -111.936L-92.901 -110.605L-91.6748 -108.743ZM-93.4277 -111.404L-92.0706 -112.708L-93.2538 -114.35L-94.5812 -113.156L-93.4277 -111.404ZM-95.1059 -113.952L-93.8082 -115.12L-94.582 -116.194C-94.6522 -116.291 -94.7248 -116.386 -94.7999 -116.478C-95.2755 -116.254 -95.7298 -115.967 -96.1503 -115.614L-96.1826 -115.587L-95.1059 -113.952ZM-96.7045 -116.379C-96.3207 -116.695 -95.9132 -116.963 -95.4891 -117.186C-95.7537 -117.415 -96.0361 -117.617 -96.3322 -117.791C-96.721 -117.752 -97.1076 -117.675 -97.4861 -117.559C-97.4441 -117.499 -97.403 -117.439 -97.3627 -117.378L-96.7045 -116.379ZM-98.3952 -117.195C-98.744 -117.022 -99.0806 -116.811 -99.3998 -116.563L-259.639 8.12693L-254.453 16.0008L-97.4356 -115.766L-98.1555 -116.859C-98.2318 -116.975 -98.3118 -117.087 -98.3952 -117.195ZM-98.1286 -118.332C-98.0446 -118.363 -97.9603 -118.393 -97.8755 -118.42C-98.0186 -118.456 -98.163 -118.486 -98.3084 -118.51C-98.2475 -118.452 -98.1875 -118.393 -98.1286 -118.332ZM-154.434 156.465L-154.995 156.833C-155.184 156.956 -155.377 157.067 -155.574 157.165L-157.921 155.005L-163.033 147.911L-155.01 155.728L-154.434 156.465ZM-263.181 14.3086C-263.269 13.248 -263.074 12.206 -262.636 11.2758L-257.431 18.5003L-258.531 19.4237C-258.919 19.7482 -259.267 20.1099 -259.571 20.5011L-261.937 17.4767C-262.656 16.5585 -263.084 15.4651 -263.181 14.3086ZM-257.925 20.1385L-256.882 19.2627L-251.471 26.7726L-253.347 28.4604L-258.971 21.2683C-258.674 20.8538 -258.324 20.4734 -257.925 20.1385ZM-252.766 29.2032L-250.918 27.5403L-245.667 34.8289L-247.208 36.3094L-252.766 29.2032ZM-246.625 37.055L-245.111 35.6006L-240.003 42.6895L-241.235 43.9468L-246.625 37.055ZM-240.651 44.6941L-239.445 43.4638L-234.472 50.3667L-235.416 51.3872L-240.651 44.6941ZM-234.829 52.138L-233.911 51.1456L-229.061 57.8768L-229.737 58.6482L-234.829 52.138ZM-229.149 59.4009L-228.498 58.6585L-223.764 65.2287L-224.191 65.7405L-229.149 59.4009ZM-223.599 66.4966L-223.198 66.0148L-218.574 72.4327L-218.767 72.6756L-223.599 66.4966ZM-183.472 119.542L-182.809 120.463L-181.186 122.257L-182.024 121.186L-183.446 119.499L-183.472 119.542ZM-180.023 125.94L-183.525 121.08L-184.047 120.503L-184.64 121.495L-180.145 126.151L-180.023 125.94ZM-188.51 114.161L-188.64 113.98L-188.654 114.002L-188.51 114.161ZM-179.067 127.267L-179.419 126.779L-179.464 126.856L-179.067 127.267ZM-177.824 127.382L-174.997 131.305L-174.721 130.812L-177.824 127.382ZM-175.614 134.337L-174.897 133.055L-171.04 138.409L-171.176 138.661L-175.614 134.337ZM-170.637 137.356L-170.541 137.49L-170.529 137.468L-170.637 137.356ZM-170.476 139.344L-170.429 139.257L-170.109 139.701L-170.476 139.344ZM-169.93 138.337L-166.213 143.497L-166.127 143.581L-165.598 142.575L-169.844 138.178L-169.93 138.337ZM-161.366 151.835L-166.01 145.39L-166.78 146.854L-161.366 151.835ZM-155.192 158.793L-149.646 166.491L-147.038 168.764C-146.217 169.128 -145.322 169.297 -144.427 169.259L-145.994 167.256L-155.192 158.793ZM-143.739 170.139C-144.303 170.218 -144.873 170.225 -145.435 170.161L-140.053 174.852L-143.739 170.139ZM-138.18 173.168L-142.003 169.651C-141.798 169.563 -141.596 169.463 -141.398 169.352L-138.18 173.168ZM-128.212 179.935L-139.615 168.126L20.4603 53.3656C22.3642 51.9972 23.4294 49.6965 23.2375 47.3584C23.1389 46.152 22.7114 44.9957 21.9994 44.0054L-55.8919 -64.1055L-53.8422 -68.005L34.9175 45.4909C35.6372 46.4091 36.0654 47.5066 36.1614 48.6589L36.1609 48.6548C36.3291 50.6734 35.4781 52.616 33.8806 53.8575L-127.616 179.526C-127.809 179.676 -128.008 179.812 -128.212 179.935ZM-54.4815 -68.8224L-56.5099 -64.9633L-58.3576 -67.5278L-56.3566 -71.22L-54.4815 -68.8224ZM-56.9888 -72.0284L-58.9685 -68.3757L-60.793 -70.9081L-58.8412 -74.3971L-56.9888 -72.0284ZM-59.4702 -75.2014L-61.4004 -71.7511L-63.1992 -74.2478L-61.2973 -77.5377L-59.4702 -75.2014ZM-61.9257 -78.3412L-63.8056 -75.0895L-65.5789 -77.5508L-63.7278 -80.6455L-61.9257 -78.3412ZM-64.3498 -81.4409L-66.1788 -78.3834L-67.9246 -80.8065L-66.1248 -83.7106L-64.3498 -81.4409ZM-66.7437 -84.5019L-68.5209 -81.6342L-70.2327 -84.0101L-68.4848 -86.7283L-66.7437 -84.5019ZM-69.1025 -87.5181L-70.8274 -84.8355L-72.5089 -87.1694L-70.8138 -89.7063L-69.1025 -87.5181ZM-71.4252 -90.4881L-73.0971 -87.9858L-74.7459 -90.2742L-73.1041 -92.6349L-71.4252 -90.4881ZM-73.7094 -93.4089L-75.3277 -91.0819L-76.9376 -93.3163L-75.3496 -95.5062L-73.7094 -93.4089ZM-75.9526 -96.2772L-77.5169 -94.1203L-79.0861 -96.2984L-77.5523 -98.3227L-75.9526 -96.2772ZM-78.1516 -99.089L-79.6612 -97.0966L-81.1848 -99.2113L-79.7054 -101.076L-78.1516 -99.089ZM-80.3049 -101.842L-81.7595 -100.009L-83.2334 -102.055L-81.8087 -103.765L-80.3049 -101.842ZM-82.4032 -104.526L-83.8028 -102.845L-85.2312 -104.828L-83.8616 -106.39L-82.4032 -104.526ZM-84.4485 -107.141L-85.7927 -105.607L-87.1605 -107.505L-85.8454 -108.927L-84.4485 -107.141ZM-86.4341 -109.68L-87.7231 -108.286L-89.0297 -110.1L-87.769 -111.387L-86.4341 -109.68ZM-88.3534 -112.134L-89.5875 -110.874L-90.828 -112.596L-89.6639 -113.714C-89.6496 -113.728 -89.6353 -113.741 -89.621 -113.755L-88.3534 -112.134ZM-90.3156 -114.394L-91.384 -113.367L-92.5386 -114.97C-92.1198 -115.294 -91.6709 -115.559 -91.2032 -115.765C-91.1367 -115.688 -91.0717 -115.61 -91.0084 -115.529L-90.2033 -114.499C-90.241 -114.465 -90.2785 -114.429 -90.3156 -114.394ZM-91.9242 -116.466C-92.3292 -116.263 -92.7197 -116.019 -93.09 -115.735L-93.8135 -116.74C-93.8338 -116.768 -93.8543 -116.796 -93.875 -116.824C-93.5057 -116.929 -93.1292 -116.999 -92.7506 -117.034C-92.4622 -116.87 -92.1856 -116.681 -91.9242 -116.466ZM-94.3519 -117.662C-94.4169 -117.641 -94.4816 -117.619 -94.5462 -117.597C-94.5919 -117.642 -94.6383 -117.686 -94.6851 -117.73C-94.5735 -117.711 -94.4623 -117.688 -94.3519 -117.662ZM-142.772 168.943C-142.516 168.854 -142.264 168.746 -142.018 168.618L-143.114 167.318L-149.982 160.626L-145.288 166.628L-142.772 168.943ZM-259.49 22.1326C-259.98 23.1253 -260.203 24.2453 -260.109 25.3751C-260.002 26.6515 -259.507 27.8453 -258.678 28.8293L-256.482 31.4337C-256.216 31.093 -255.917 30.7727 -255.587 30.477L-254.048 29.0913L-259.49 22.1326ZM-253.467 29.834L-254.958 31.1763C-255.297 31.4808 -255.598 31.8147 -255.859 32.1724L-250.059 39.0483L-247.89 36.9647L-253.467 29.834ZM-247.307 37.7103L-249.451 39.7696L-243.757 46.5212L-241.899 44.625L-247.307 37.7103ZM-241.315 45.3723L-243.147 47.2433L-237.632 53.7829L-236.063 52.0871L-241.315 45.3723ZM-235.476 52.8379L-237.021 54.5076L-231.669 60.8527L-230.369 59.3688L-235.476 52.8379ZM-229.78 60.1214L-231.057 61.5785L-225.858 67.7427L-224.807 66.4805L-229.78 60.1214ZM-224.215 67.2367L-225.244 68.4712L-220.187 74.4661L-219.369 73.4342L-224.215 67.2367ZM-218.771 74.1987L-219.567 75.2019L-214.641 81.0426L-214.039 80.2488L-218.771 74.1987ZM-163.305 143.591L-164.227 142.412L-162.654 144.151L-161.892 145.054L-163.305 143.591ZM-173.057 132.651L-170.022 136.532L-170.058 136.598L-174.377 132.125L-174.054 131.549L-173.057 132.651ZM-164.008 144.222L-159.331 150.203L-165.421 144.269L-164.907 143.291L-164.008 144.222ZM-136.293 178.13L-141.727 171.182L-133.37 178.871L-131.77 180.768C-132.527 180.707 -133.272 180.504 -133.96 180.163L-136.293 178.13ZM-132.236 181.667C-131.815 181.724 -131.389 181.744 -130.964 181.724L-127.616 185.693L-132.236 181.667ZM-129.216 181.416L-127.592 182.91L-129.006 181.347C-129.044 181.36 -129.083 181.373 -129.122 181.386C-129.153 181.396 -129.184 181.406 -129.216 181.416ZM-127.54 180.631L-118.615 189.875L-116.319 192.111C-115.464 191.886 -114.645 191.474 -113.924 190.869L47.8508 55.1174C49.3838 53.8296 50.1996 51.8746 50.0346 49.8808L50.0351 49.8849C49.9317 48.6079 49.4368 47.4141 48.6036 46.4266L-51.5646 -72.338L-53.3622 -68.9182L35.6612 44.9148C36.4914 45.9781 36.9917 47.2467 37.1029 48.5855C37.2938 50.9154 36.3064 53.1685 34.4613 54.6048L-127.035 180.273C-127.2 180.401 -127.368 180.52 -127.54 180.631ZM-54.0014 -69.7356L-52.2231 -73.1188L-54.1131 -75.3596L-55.8677 -72.122L-54.0014 -69.7356ZM-56.4999 -72.9304L-54.7647 -76.1322L-56.632 -78.3461L-58.3432 -75.2873L-56.4999 -72.9304ZM-58.9722 -76.0916L-57.2806 -79.1152L-59.1226 -81.2992L-60.7897 -78.4156L-58.9722 -76.0916ZM-61.4181 -79.2192L-59.7712 -82.0681L-61.5882 -84.2225L-63.2102 -81.5108L-61.4181 -79.2192ZM-63.8323 -82.3062L-62.2305 -84.984L-64.0204 -87.1062L-65.5968 -84.5625L-63.8323 -82.3062ZM-66.2157 -85.3538L-64.6598 -87.8644L-66.4157 -89.9462L-67.946 -87.5663L-66.2157 -85.3538ZM-68.5636 -88.3561L-67.0543 -90.7034L-68.7803 -92.7498L-70.2636 -90.5298L-68.5636 -88.3561ZM-70.875 -91.3116L-69.4129 -93.4999L-71.1063 -95.5077L-72.542 -93.4432L-70.875 -91.3116ZM-73.1473 -94.2171L-71.733 -96.2507L-73.3873 -98.2121L-74.775 -96.2985L-73.1473 -94.2171ZM-75.378 -97.0696L-74.0122 -98.953L-75.6254 -100.866L-76.9646 -99.0983L-75.378 -97.0696ZM-77.5639 -99.8646L-76.247 -101.603L-77.8137 -103.46L-79.104 -101.834L-77.5639 -99.8646ZM-79.7035 -102.6L-78.436 -104.198L-79.9517 -105.995L-81.1929 -104.505L-79.7035 -102.6ZM-81.7874 -105.265L-80.5695 -106.728L-82.0391 -108.47L-83.2306 -107.111L-81.7874 -105.265ZM-83.8174 -107.861L-82.6494 -109.194L-84.056 -110.862L-85.1983 -109.627L-83.8174 -107.861ZM-85.787 -110.379L-84.6689 -111.588L-85.9967 -113.162C-86.1407 -113.038 -86.2803 -112.907 -86.415 -112.769L-87.105 -112.065L-85.787 -110.379ZM-87.6894 -112.812L-87.0889 -113.425C-86.9324 -113.585 -86.7703 -113.737 -86.6029 -113.881L-87.4353 -114.868C-87.4903 -114.933 -87.5464 -114.997 -87.6035 -115.06C-88.0522 -114.875 -88.4849 -114.638 -88.8926 -114.351L-87.6894 -112.812ZM-89.4735 -115.093C-89.1164 -115.349 -88.742 -115.569 -88.3551 -115.755C-88.6102 -115.954 -88.8783 -116.131 -89.1564 -116.285C-89.5268 -116.254 -89.8952 -116.191 -90.2573 -116.095L-89.4735 -115.093ZM-90.9574 -116.868C-90.9106 -116.883 -90.8637 -116.899 -90.8167 -116.913C-90.897 -116.931 -90.9776 -116.947 -91.0585 -116.962C-91.0246 -116.931 -90.9909 -116.9 -90.9574 -116.868ZM-129.704 180.575C-129.816 180.605 -129.928 180.633 -130.041 180.657L-132.645 178.261L-136.157 174.096L-131.162 178.964L-129.704 180.575ZM-257.05 36.4473C-257.15 35.2413 -256.913 34.064 -256.382 33.0243L-250.746 39.7075L-252.643 41.5303C-252.927 41.8034 -253.187 42.0951 -253.422 42.4026L-255.423 40.1908C-256.373 39.1427 -256.935 37.8485 -257.05 36.4473ZM-251.992 42.21L-250.137 40.4288L-244.424 47.2026L-246.845 49.6738L-252.778 43.1145C-252.546 42.7931 -252.283 42.4903 -251.992 42.21ZM-246.213 50.3724L-243.815 47.9247L-238.282 54.4852L-240.41 56.7866L-246.213 50.3724ZM-239.777 57.4871L-237.67 55.2099L-232.302 61.5748L-234.16 63.6956L-239.777 57.4871ZM-233.526 64.3965L-231.69 62.3006L-226.475 68.4836L-228.083 70.4144L-233.526 64.3965ZM-227.447 71.1171L-225.86 69.212L-220.789 75.2246L-222.164 76.9574L-227.447 71.1171ZM-221.522 77.6667L-220.169 75.9605L-215.228 81.8179L-216.385 83.3453L-221.522 77.6667ZM-215.742 84.057L-214.605 82.5568L-209.786 88.2698L-210.741 89.5856L-215.742 84.057ZM-210.094 90.3006L-209.16 89.0127L-204.455 94.5907L-205.219 95.6893L-210.094 90.3006ZM-143.022 165.957L-142.378 166.721L-141.189 167.88L-141.529 167.504L-143.022 165.957ZM-127.835 183.964L-122.935 189.773L-120.892 191.554C-120.36 191.846 -119.792 192.054 -119.207 192.179L-120.699 190.529L-127.835 183.964ZM-118.236 193.252C-118.504 193.24 -118.772 193.213 -119.037 193.171L-115.597 196.17L-118.236 193.252ZM-104.266 203.856L-115.55 192.861C-114.758 192.584 -114.001 192.163 -113.321 191.593L48.4531 55.8368C50.2213 54.3558 51.1624 52.1001 50.9715 49.8038C50.8518 48.332 50.2791 46.9554 49.3225 45.8201L-51.0931 -73.2351L-49.5157 -76.2359L62.2937 47.3619C63.2388 48.4064 63.8015 49.7047 63.9165 51.1059L63.916 51.1018C64.0826 53.108 63.3213 55.0309 61.825 56.3768L-100.228 202.217C-101.385 203.258 -102.82 203.8 -104.266 203.856ZM-50.1918 -76.9833L-51.7516 -74.0159L-53.6326 -76.2461L-52.0937 -79.0857L-50.1918 -76.9833ZM-52.763 -79.8256L-54.2842 -77.0187L-56.1422 -79.2216L-54.6422 -81.9029L-52.763 -79.8256ZM-55.3088 -82.6398L-56.7909 -79.9906L-58.6232 -82.1631L-57.1628 -84.6892L-55.3088 -82.6398ZM-57.8297 -85.4264L-59.2717 -82.932L-61.0787 -85.0743L-59.6587 -87.4483L-57.8297 -85.4264ZM-60.3194 -88.1787L-61.7209 -85.8358L-63.5003 -87.9455L-62.1213 -90.1706L-60.3194 -88.1787ZM-62.7796 -90.8983L-64.1397 -88.7036L-65.8845 -90.7722L-64.5471 -92.8521L-62.7796 -90.8983ZM-65.2051 -93.5794L-66.5232 -91.5295L-68.2375 -93.5621L-66.9426 -95.5001L-65.2051 -93.5794ZM-67.5948 -96.2211L-68.8702 -94.3122L-70.5515 -96.3055L-69.2996 -98.1056L-67.5948 -96.2211ZM-69.946 -98.8202L-71.1782 -97.0486L-72.8197 -98.9948L-71.6113 -100.661L-69.946 -98.8202ZM-72.2563 -101.374L-73.4446 -99.7357L-75.0444 -101.633L-73.8801 -103.169L-72.2563 -101.374ZM-74.5222 -103.879L-75.666 -102.369L-77.2186 -104.21L-76.0988 -105.622L-74.5222 -103.879ZM-76.7422 -106.333L-77.8409 -104.948L-79.3418 -106.728L-78.2669 -108.018L-76.7422 -106.333ZM-78.9062 -108.725L-79.9596 -107.46L-81.4136 -109.184L-80.3841 -110.359L-78.9062 -108.725ZM-81.0161 -111.057L-82.0239 -109.908L-83.414 -111.556L-83.1698 -111.82C-82.9213 -112.088 -82.6555 -112.335 -82.3746 -112.559L-81.0161 -111.057ZM-83.8663 -112.456L-84.0269 -112.282L-85.2456 -113.727C-84.855 -113.981 -84.441 -114.193 -84.009 -114.361C-83.9592 -114.309 -83.9101 -114.257 -83.8617 -114.203L-83.007 -113.258C-83.3097 -113.014 -83.5969 -112.746 -83.8663 -112.456ZM-84.7929 -115.05C-85.1615 -114.879 -85.5169 -114.679 -85.8562 -114.451L-86.6348 -115.374C-86.2832 -115.459 -85.9261 -115.515 -85.5674 -115.542C-85.2999 -115.398 -85.041 -115.234 -84.7929 -115.05ZM-87.2887 -116.171C-87.3005 -116.167 -87.3122 -116.163 -87.3239 -116.16C-87.3379 -116.155 -87.352 -116.151 -87.366 -116.147L-87.3811 -116.16L-87.3964 -116.174C-87.4049 -116.182 -87.4134 -116.189 -87.422 -116.197C-87.393 -116.192 -87.3641 -116.186 -87.3353 -116.18C-87.3197 -116.177 -87.3042 -116.174 -87.2887 -116.171ZM-253.294 43.9545C-253.854 45.0396 -254.106 46.2697 -254.003 47.5209C-253.878 49.0299 -253.228 50.4594 -252.171 51.5568L-250.393 53.3985C-250.182 53.1145 -249.95 52.8435 -249.699 52.5877L-247.508 50.351L-253.294 43.9545ZM-246.876 51.0496L-249.025 53.2436C-249.283 53.5076 -249.518 53.7898 -249.728 54.087L-243.694 60.3364L-241.055 57.4839L-246.876 51.0496ZM-240.422 58.1843L-243.039 61.0142L-237.153 67.1103L-234.788 64.4118L-240.422 58.1843ZM-234.154 65.1127L-236.499 67.7881L-230.805 73.6841L-228.694 71.1484L-234.154 65.1127ZM-228.058 71.8511L-230.15 74.3629L-224.636 80.0734L-222.76 77.7084L-228.058 71.8511ZM-222.118 78.4176L-223.975 80.7581L-218.624 86.2998L-216.967 84.1123L-222.118 78.4176ZM-216.323 84.824L-217.961 86.9863L-212.761 92.3718L-211.308 90.3677L-216.323 84.824ZM-210.661 91.0827L-212.096 93.061L-207.036 98.3014L-205.773 96.4859L-210.661 91.0827ZM-205.125 97.2023L-206.369 98.9914L-201.438 104.099L-200.354 102.477L-205.125 97.2023ZM-199.703 103.196L-200.769 104.791L-195.959 109.773L-195.043 108.348L-199.703 103.196ZM-120.007 189.888L-120.437 189.413L-119.379 190.445L-119.186 190.644L-120.007 189.888ZM-109.584 201.411L-113.115 197.508L-108.134 202.091L-106.842 203.429C-107.175 203.3 -107.499 203.143 -107.811 202.957L-109.584 201.411ZM-105.824 204.688C-105.746 204.702 -105.668 204.715 -105.589 204.726L-104.571 205.78L-105.824 204.688ZM-103.382 204.717L-94.7709 213.107L-92.3909 215.297C-90.3463 215.689 -88.1467 215.117 -86.5356 213.569L75.7956 57.6408C77.2367 56.2558 77.9671 54.3201 77.8026 52.3304L77.8067 52.3298C77.6822 50.8209 77.0312 49.3873 75.9792 48.2934L-47.6665 -79.754L-49.0496 -77.1227L62.993 46.7328C64.0796 47.9353 64.7246 49.42 64.8575 51.0284C65.0489 53.3288 64.1727 55.5344 62.4587 57.0797L-99.5986 202.921C-100.698 203.91 -102.018 204.506 -103.382 204.717ZM-49.7257 -77.8701L-48.3587 -80.4709L-50.2701 -82.4503L-51.6185 -79.9624L-49.7257 -77.8701ZM-52.2878 -80.7023L-50.9556 -83.1603L-52.8445 -85.1164L-54.1575 -82.7692L-52.2878 -80.7023ZM-54.8242 -83.5062L-53.5276 -85.8238L-55.3911 -87.7537L-56.6682 -85.5446L-54.8242 -83.5062ZM-57.3351 -86.2819L-56.0749 -88.4618L-57.9135 -90.3658L-59.1538 -88.2923L-57.3351 -86.2819ZM-59.8146 -89.0227L-58.5913 -91.0677L-60.4027 -92.9437L-61.6057 -91.0026L-59.8146 -89.0227ZM-62.264 -91.7303L-61.0784 -93.6434L-62.8551 -95.4834L-64.0201 -93.6716L-62.264 -91.7303ZM-64.6781 -94.399L-63.5309 -96.1832L-65.2776 -97.9921L-66.4038 -96.3066L-64.6781 -94.399ZM-67.0559 -97.0275L-65.9478 -98.6861L-67.6616 -100.461L-68.7483 -98.8983L-67.0559 -97.0275ZM-69.3947 -99.6129L-68.3263 -101.149L-70.0002 -102.883L-71.0469 -101.439L-69.3947 -99.6129ZM-71.692 -102.152L-70.6638 -103.57L-72.2958 -105.26L-73.302 -103.932L-71.692 -102.152ZM-73.9441 -104.642L-72.9569 -105.945L-74.5409 -107.585L-75.5061 -106.369L-73.9441 -104.642ZM-76.1495 -107.08L-75.2039 -108.272L-76.7352 -109.858L-77.6589 -108.748L-76.1495 -107.08ZM-78.2982 -109.455L-77.4126 -110.519L-77.3945 -110.54L-78.7571 -111.951C-79.1112 -111.692 -79.4461 -111.397 -79.7567 -111.067L-78.2982 -109.455ZM-80.3863 -111.763C-80.0808 -112.082 -79.7549 -112.371 -79.4126 -112.63L-80.2928 -113.542C-80.3323 -113.583 -80.3723 -113.623 -80.4126 -113.663C-80.8236 -113.512 -81.2191 -113.324 -81.595 -113.099L-80.3863 -111.763ZM-82.2368 -113.809C-81.9136 -114.012 -81.5769 -114.192 -81.2291 -114.347C-81.4732 -114.52 -81.7265 -114.674 -81.9873 -114.81C-82.334 -114.787 -82.6756 -114.737 -83.0097 -114.663L-82.2368 -113.809ZM-83.7763 -115.436L-83.7746 -115.436L-83.7775 -115.437L-83.7763 -115.436ZM-250.956 58.5905C-251.062 57.3078 -250.804 56.0404 -250.232 54.9207L-244.334 61.0289L-246.754 63.645C-246.979 63.8883 -247.188 64.1442 -247.38 64.411L-248.916 62.9141C-250.097 61.7613 -250.819 60.2277 -250.956 58.5905ZM-246.062 64.2818L-243.68 61.7067L-237.776 67.8212L-240.587 71.0293L-246.696 65.0772C-246.505 64.7986 -246.293 64.5326 -246.062 64.2818ZM-239.914 71.6855L-237.122 68.499L-231.412 74.4124L-233.967 77.4802L-239.914 71.6855ZM-233.293 78.1368L-230.757 75.0912L-225.227 80.8181L-227.544 83.7384L-233.293 78.1368ZM-226.865 84.4002L-224.566 81.5028L-219.2 87.0601L-221.296 89.8261L-226.865 84.4002ZM-220.615 90.4893L-218.537 87.7466L-213.323 93.1468L-215.213 95.753L-220.615 90.4893ZM-214.53 96.4183L-212.658 93.8361L-207.584 99.0904L-209.282 101.532L-214.53 96.4183ZM-208.599 102.198L-206.918 99.7805L-201.974 104.901L-203.492 107.174L-208.599 102.198ZM-202.807 107.841L-201.305 105.594L-196.483 110.588L-197.833 112.687L-202.807 107.841ZM-197.145 113.358L-195.811 111.284L-191.101 116.162L-192.293 118.086L-197.145 113.358ZM-96.3552 212.928L-96.2708 213.015L-96.0693 213.191L-96.3552 212.928ZM-80.1886 226.524L-91.2483 216.348C-89.3213 216.375 -87.3831 215.676 -85.889 214.241L76.4427 58.3169C78.0891 56.7341 78.9272 54.525 78.7389 52.2493C78.6002 50.5285 77.8559 48.8888 76.6506 47.6428L-47.2058 -80.6305L-45.9913 -82.9411L89.6565 49.2261C90.8368 50.3748 91.5597 51.9125 91.6963 53.5497L91.7004 53.5492C91.8634 55.5265 91.1599 57.4756 89.7693 58.8961L-72.8404 224.909C-74.8058 226.918 -77.7141 227.46 -80.1886 226.524ZM-46.6982 -83.6299L-47.898 -81.3474L-49.8002 -83.3174L-48.6174 -85.4998L-46.6982 -83.6299ZM-49.3178 -86.1823L-50.4857 -84.0274L-52.3649 -85.9736L-51.2144 -88.0302L-49.3178 -86.1823ZM-51.9127 -88.7105L-53.048 -86.6811L-54.9015 -88.6006L-53.7839 -90.5337L-51.9127 -88.7105ZM-54.4832 -91.2151L-55.5852 -89.3088L-57.4133 -91.202L-56.3295 -93.014L-54.4832 -91.2151ZM-57.0229 -93.6896L-58.091 -91.904L-59.8915 -93.7686L-58.842 -95.4621L-57.0229 -93.6896ZM-59.5337 -96.136L-60.5672 -94.4684L-62.3323 -96.2965L-61.3177 -97.8743L-59.5337 -96.136ZM-62.0099 -98.5487L-63.008 -96.9963L-64.7426 -98.7927L-63.7638 -100.258L-62.0099 -98.5487ZM-64.4507 -100.927L-65.4128 -99.4868L-67.1139 -101.249L-66.1715 -102.604L-64.4507 -100.927ZM-66.8531 -103.268L-67.7785 -101.937L-69.439 -103.657L-68.5337 -104.905L-66.8531 -103.268ZM-69.2146 -105.568L-70.1026 -104.344L-71.7205 -106.019L-70.8528 -107.165L-69.2146 -105.568ZM-71.5315 -107.826L-72.3815 -106.704L-73.9507 -108.329L-73.4422 -108.97C-73.3348 -109.106 -73.2237 -109.237 -73.1092 -109.363L-71.5315 -107.826ZM-74.1865 -109.554L-74.6136 -109.016L-76.0958 -110.551C-75.7947 -110.84 -75.4725 -111.101 -75.1323 -111.334L-73.7868 -110.023C-73.9244 -109.873 -74.0578 -109.716 -74.1865 -109.554ZM-75.8183 -112.003C-76.1452 -111.768 -76.4565 -111.51 -76.7502 -111.229L-77.9464 -112.467C-77.5807 -112.668 -77.2008 -112.835 -76.8113 -112.969C-76.7806 -112.94 -76.75 -112.911 -76.7197 -112.881L-75.8183 -112.003ZM-77.6562 -113.647C-77.9851 -113.507 -78.3063 -113.346 -78.6176 -113.163L-79.3818 -113.954C-79.0586 -114.019 -78.7287 -114.063 -78.3939 -114.084C-78.1399 -113.954 -77.8936 -113.808 -77.6562 -113.647ZM-247.189 65.9142C-247.765 67.0646 -248.024 68.3634 -247.917 69.6652C-247.772 71.4354 -246.969 73.0719 -245.66 74.2796L-244.39 75.4485C-244.21 75.1893 -244.013 74.9385 -243.802 74.6973L-241.21 71.7398L-247.189 65.9142ZM-240.537 72.396L-243.095 75.3155C-243.312 75.5634 -243.511 75.8227 -243.69 76.0919L-237.53 81.7596L-234.572 78.2073L-240.537 72.396ZM-233.898 78.8639L-236.839 82.3953L-230.85 87.9057L-228.133 84.4811L-233.898 78.8639ZM-227.454 85.1429L-230.154 88.5461L-224.363 93.8741L-221.87 90.5835L-227.454 85.1429ZM-221.189 91.2467L-223.666 94.5156L-218.058 99.6755L-215.773 96.5244L-221.189 91.2467ZM-215.09 97.1898L-217.359 100.319L-211.919 105.323L-209.828 102.316L-215.09 97.1898ZM-209.145 102.982L-211.22 105.967L-205.935 110.83L-204.024 107.971L-209.145 102.982ZM-203.34 108.638L-205.234 111.474L-200.094 116.203L-198.353 113.497L-203.34 108.638ZM-197.665 114.167L-199.39 116.851L-194.383 121.458L-192.801 118.906L-197.665 114.167ZM-192.11 119.58L-193.677 122.108L-188.795 126.599L-187.363 124.205L-192.11 119.58ZM-186.667 124.883L-188.084 127.253L-183.318 131.638L-182.026 129.404L-186.667 124.883ZM-78.7558 227.842C-76.4056 228.145 -73.9449 227.385 -72.1661 225.569L90.4473 59.5515C92.0271 57.9394 92.8266 55.7226 92.6414 53.4717C92.489 51.6102 91.6642 49.8635 90.3211 48.5553L-45.5333 -83.8124L-44.4687 -85.8377L103.343 50.1617C104.651 51.3653 105.454 53.0059 105.599 54.7761L105.6 54.7803C105.766 56.7488 105.089 58.7113 103.745 60.1636L-59.1438 236.26C-61.6278 238.945 -65.73 239.274 -68.6012 237.134L-69.6632 236.208L-78.7558 227.842ZM-46.2402 -84.5012L-45.1893 -86.5006L-47.1148 -88.2723L-48.1501 -86.3621L-46.2402 -84.5012ZM-48.8505 -87.0445L-47.829 -88.9294L-49.7318 -90.6802L-50.7373 -88.8829L-48.8505 -87.0445ZM-51.4356 -89.5633L-50.4441 -91.3356L-52.3216 -93.063L-53.2966 -91.3765L-51.4356 -89.5633ZM-53.9959 -92.0579L-53.0353 -93.7197L-54.8878 -95.4242L-55.8316 -93.8464L-53.9959 -92.0579ZM-56.525 -94.522L-55.5957 -96.0755L-57.421 -97.755L-58.3329 -96.2836L-56.525 -94.522ZM-59.0246 -96.9575L-58.1275 -98.405L-59.9175 -100.052L-60.7969 -98.6843L-59.0246 -96.9575ZM-61.489 -99.3587L-60.6248 -100.703L-62.3846 -102.322L-63.2307 -101.056L-61.489 -99.3587ZM-63.9175 -101.725L-63.0868 -102.968L-64.8134 -104.557L-65.6254 -103.389L-63.9175 -101.725ZM-66.3069 -104.053L-65.5106 -105.198L-67.1964 -106.749L-67.9738 -105.677L-66.3069 -104.053ZM-68.6547 -106.34L-67.8933 -107.39L-69.481 -108.851C-69.7376 -108.594 -69.9798 -108.317 -70.2051 -108.019L-70.2785 -107.923L-68.6547 -106.34ZM-70.9572 -108.584L-70.9556 -108.586C-70.7117 -108.908 -70.4502 -109.209 -70.1735 -109.488L-71.5065 -110.715C-71.8298 -110.51 -72.1404 -110.279 -72.435 -110.024L-70.9572 -108.584ZM-73.1135 -110.685C-72.8292 -110.935 -72.5314 -111.165 -72.2223 -111.373L-73.1472 -112.224C-73.1551 -112.232 -73.1629 -112.239 -73.1708 -112.246C-73.1833 -112.257 -73.1958 -112.269 -73.2083 -112.28C-73.5816 -112.159 -73.9436 -112.009 -74.2916 -111.833L-73.1135 -110.685ZM-74.9991 -112.522C-74.7053 -112.685 -74.4018 -112.831 -74.09 -112.958C-74.3171 -113.106 -74.5516 -113.24 -74.7924 -113.36C-75.1117 -113.344 -75.4298 -113.306 -75.7445 -113.248L-74.9991 -112.522ZM-244.883 80.7364C-244.993 79.3992 -244.744 78.0935 -244.17 76.925L-238.131 82.4814L-240.857 85.7547C-241.057 85.995 -241.243 86.2441 -241.414 86.5008L-242.401 85.6406C-243.842 84.3826 -244.725 82.639 -244.883 80.7364ZM-240.132 86.3497L-237.44 83.1171L-231.435 88.6427L-234.51 92.5185L-240.699 87.1235C-240.528 86.8562 -240.339 86.5977 -240.132 86.3497ZM-233.798 93.1389L-230.739 89.2831L-224.933 94.6254L-227.781 98.3841L-233.798 93.1389ZM-227.068 99.0053L-224.235 95.2669L-218.613 100.44L-221.25 104.077L-227.068 99.0053ZM-220.536 104.699L-217.913 101.084L-212.46 106.101L-214.901 109.611L-220.536 104.699ZM-214.187 110.233L-211.761 106.744L-206.462 111.62L-208.72 114.999L-214.187 110.233ZM-208.005 115.621L-205.762 112.264L-200.609 117.005L-202.696 120.25L-208.005 115.621ZM-201.978 120.875L-199.906 117.652L-194.887 122.27L-196.812 125.378L-201.978 120.875ZM-196.092 126.005L-194.18 122.92L-189.288 127.422L-191.063 130.389L-196.092 126.005ZM-190.338 131.021L-188.577 128.076L-183.8 132.471L-185.433 135.297L-190.338 131.021ZM-184.708 135.928L-183.088 133.126L-178.419 137.422L-179.919 140.103L-184.708 135.928ZM-179.194 140.735L-177.707 138.077L-173.138 142.281L-174.512 144.816L-179.194 140.735ZM-55.7943 248.297L-66.1474 239.273C-63.4332 239.885 -60.4714 239.077 -58.4519 236.893L104.436 60.7963C105.957 59.1498 106.726 56.9244 106.54 54.6945C106.374 52.6924 105.464 50.835 103.979 49.4693L-44.0158 -86.6992L-43.0837 -88.4726L117.028 51.0892C118.473 52.3467 119.352 54.0867 119.51 55.9934L119.514 55.9929C119.682 57.9821 119.043 59.9104 117.726 61.4138L-45.4404 247.599C-48.1081 250.639 -52.7473 250.951 -55.7943 248.297ZM-43.8168 -89.1117L-44.7364 -87.3622L-46.6525 -89.1252L-45.7477 -90.7947L-43.8168 -89.1117ZM-46.4746 -91.4283L-47.3667 -89.7824L-49.2597 -91.5241L-48.3828 -93.0916L-46.4746 -91.4283ZM-49.1081 -93.7238L-49.972 -92.1795L-51.8392 -93.8974L-50.9908 -95.3649L-49.1081 -93.7238ZM-51.7178 -95.9986L-52.5529 -94.5541L-54.3946 -96.2487L-53.5756 -97.6179L-51.7178 -95.9986ZM-54.2969 -98.2467L-55.1025 -96.9L-56.9165 -98.569L-56.1275 -99.8423L-54.2969 -98.2467ZM-56.8477 -100.47L-57.623 -99.2191L-59.4011 -100.855L-58.6426 -102.035L-56.8477 -100.47ZM-59.3641 -102.664L-60.1084 -101.506L-61.8557 -103.113L-61.1286 -104.202L-59.3641 -102.664ZM-61.8453 -104.826L-62.5579 -103.76L-64.2712 -105.336L-63.7269 -106.119C-63.6766 -106.191 -63.6255 -106.262 -63.5733 -106.333L-61.8453 -104.826ZM-64.4984 -106.653L-64.9684 -105.978L-66.6269 -107.503C-66.3856 -107.794 -66.1268 -108.066 -65.8523 -108.319L-64.2831 -106.951C-64.3565 -106.854 -64.4283 -106.754 -64.4984 -106.653ZM-66.5661 -108.941C-66.8315 -108.691 -67.0834 -108.424 -67.3202 -108.141L-68.7749 -109.48C-68.4902 -109.705 -68.1927 -109.908 -67.8846 -110.091L-66.5661 -108.941ZM-68.6274 -110.738C-68.9197 -110.551 -69.2028 -110.346 -69.4749 -110.124L-70.6359 -111.192C-70.3007 -111.349 -69.9558 -111.482 -69.6041 -111.589C-69.5956 -111.582 -69.5872 -111.575 -69.5788 -111.567L-68.6274 -110.738ZM-70.5216 -112.265C-70.8131 -112.151 -71.0992 -112.021 -71.3786 -111.875L-72.1094 -112.548C-71.9238 -112.579 -71.7362 -112.603 -71.547 -112.62C-71.4342 -112.63 -71.3216 -112.638 -71.2092 -112.644C-70.9751 -112.531 -70.7455 -112.405 -70.5216 -112.265ZM-241.166 87.9663C-241.727 89.1518 -241.967 90.4673 -241.857 91.8086C-241.686 93.8478 -240.727 95.6948 -239.145 97.002L-238.455 97.5733C-238.288 97.3087 -238.106 97.0517 -237.91 96.8033L-235.096 93.2573L-241.166 87.9663ZM-234.384 93.8777L-237.169 97.388C-237.371 97.6422 -237.556 97.9068 -237.723 98.1801L-231.519 103.318L-228.351 99.1368L-234.384 93.8777ZM-227.638 99.758L-230.792 103.92L-224.76 108.917L-221.805 104.843L-227.638 99.758ZM-221.091 105.465L-224.031 109.52L-218.198 114.351L-215.442 110.389L-221.091 105.465ZM-214.728 111.011L-217.47 114.954L-211.818 119.635L-209.248 115.788L-214.728 111.011ZM-208.533 116.411L-211.09 120.238L-205.608 124.779L-203.211 121.05L-208.533 116.411ZM-202.493 121.676L-204.877 125.384L-199.55 129.796L-197.315 126.189L-202.493 121.676ZM-196.595 126.817L-198.818 130.403L-193.637 134.693L-191.554 131.211L-196.595 126.817ZM-190.83 131.842L-192.9 135.304L-187.854 139.484L-185.913 136.128L-190.83 131.842ZM-185.189 136.759L-187.117 140.094L-182.195 144.171L-180.389 140.943L-185.189 136.759ZM-179.664 141.575L-181.457 144.781L-176.651 148.762L-174.972 145.665L-179.664 141.575ZM-174.245 146.299L-175.912 149.374L-171.216 153.264L-169.657 150.298L-174.245 146.299ZM-53.7307 250.57L-42.4258 259.933C-39.2103 262.596 -34.4203 262.151 -31.7446 258.942L131.7 62.669C132.976 61.1374 133.589 59.1998 133.425 57.2143L133.421 57.2189C133.25 55.1756 132.291 53.3327 130.709 52.0213L-41.8207 -90.8754L-42.6332 -89.3297L117.65 50.3819C119.275 51.8009 120.274 53.7644 120.451 55.9159C120.635 58.1628 119.918 60.3356 118.433 62.032L-44.7331 248.221C-47.0273 250.838 -50.6266 251.661 -53.7307 250.57ZM-43.3663 -89.9687L-42.5655 -91.4923L-44.5009 -93.0953L-45.2877 -91.6435L-43.3663 -89.9687ZM-46.0146 -92.2771L-45.2396 -93.7071L-47.1523 -95.2912L-47.9128 -93.9317L-46.0146 -92.2771ZM-48.6381 -94.5639L-47.8896 -95.9019L-49.7767 -97.4649L-50.5104 -96.1959L-48.6381 -94.5639ZM-51.2374 -96.8296L-50.5161 -98.0773L-52.3783 -99.6196L-53.0842 -98.4394L-51.2374 -96.8296ZM-53.8056 -99.0681L-53.1121 -100.227L-54.947 -101.747L-55.6246 -100.654L-53.8056 -99.0681ZM-56.3448 -101.282L-55.68 -102.354L-57.479 -103.844L-58.1276 -102.835L-56.3448 -101.282ZM-58.8491 -103.464L-58.2136 -104.453L-59.9477 -105.889C-60.1377 -105.658 -60.3171 -105.417 -60.4852 -105.165L-60.6009 -104.991L-58.8491 -103.464ZM-61.3176 -105.616L-61.2717 -105.685C-61.0844 -105.965 -60.8845 -106.233 -60.6729 -106.49L-62.225 -107.775C-62.4872 -107.552 -62.7367 -107.313 -62.9722 -107.058L-61.3176 -105.616ZM-63.6806 -107.676C-63.4517 -107.925 -63.2108 -108.161 -62.9589 -108.383L-64.2654 -109.465C-64.5586 -109.302 -64.8417 -109.122 -65.1131 -108.924L-63.6806 -107.676ZM-65.8398 -109.558C-65.5823 -109.755 -65.3149 -109.937 -65.0385 -110.105L-66.001 -110.903C-66.3336 -110.807 -66.6606 -110.69 -66.9797 -110.551L-65.8398 -109.558ZM-67.7565 -111.229C-67.4933 -111.358 -67.2245 -111.474 -66.9514 -111.577C-67.1653 -111.706 -67.3845 -111.823 -67.6085 -111.929C-67.8958 -111.918 -68.1823 -111.89 -68.4665 -111.847L-67.7565 -111.229ZM-238.835 102.881C-238.945 101.548 -238.714 100.228 -238.173 99.0324L-232.09 104.071L-234.961 107.86C-235.158 108.12 -235.34 108.389 -235.506 108.666L-235.885 108.367C-237.58 107.028 -238.654 105.028 -238.835 102.881ZM-234.206 108.426L-231.363 104.673L-225.315 109.682L-228.555 114.151L-234.758 109.256C-234.593 108.97 -234.408 108.693 -234.206 108.426ZM-227.814 114.736L-224.587 110.286L-218.739 115.129L-221.778 119.499L-227.814 114.736ZM-221.037 120.083L-218.011 115.732L-212.345 120.425L-215.197 124.692L-221.037 120.083ZM-214.456 125.276L-211.618 121.027L-206.122 125.579L-208.798 129.741L-214.456 125.276ZM-208.056 130.327L-205.392 126.184L-200.053 130.606L-202.565 134.66L-208.056 130.327ZM-201.82 135.248L-199.32 131.213L-194.128 135.513L-196.486 139.456L-201.82 135.248ZM-195.737 140.047L-193.391 136.124L-188.333 140.313L-190.547 144.143L-195.737 140.047ZM-189.799 144.733L-187.596 140.923L-182.664 145.009L-184.742 148.724L-189.799 144.733ZM-183.993 149.315L-181.926 145.62L-177.11 149.609L-179.06 153.208L-183.993 149.315ZM-178.31 153.799L-176.371 150.221L-171.665 154.118L-173.495 157.599L-178.31 153.799ZM-172.74 158.194L-170.922 154.734L-45.9478 258.245L-172.74 158.194ZM-29.057 271.574L-41.8303 261.494C-38.3041 263.516 -33.7079 262.776 -31.0224 259.55L132.422 63.2769C133.858 61.5533 134.545 59.3759 134.362 57.1414C134.171 54.8451 133.091 52.7705 131.313 51.2997L-41.3721 -91.7288L-40.664 -93.0759L144.394 52.9488C146.089 54.2878 147.163 56.2835 147.339 58.4351L147.344 58.4345C147.507 60.416 146.917 62.3675 145.678 63.9279L-18.0449 270.285C-20.7275 273.671 -25.6683 274.248 -29.057 271.574ZM-41.4197 -93.6722L-42.1169 -92.3457L-44.0427 -93.9407L-43.3589 -95.2024L-41.4197 -93.6722ZM-44.1086 -95.794L-44.7814 -94.5526L-46.6839 -96.1284L-46.025 -97.3062L-44.1086 -95.794ZM-46.7736 -97.8968L-47.4213 -96.7391L-49.2978 -98.2934L-48.6644 -99.3889L-46.7736 -97.8968ZM-49.4153 -99.9813L-50.0371 -98.9057L-51.8882 -100.439L-51.2812 -101.454L-49.4153 -99.9813ZM-52.0267 -102.042L-52.622 -101.047L-54.4452 -102.557L-54.0069 -103.264C-53.9596 -103.34 -53.9113 -103.416 -53.8622 -103.49L-52.0267 -102.042ZM-54.8108 -103.757L-55.1783 -103.164L-56.954 -104.635C-56.754 -104.911 -56.5403 -105.175 -56.314 -105.425L-54.6049 -104.076C-54.6752 -103.971 -54.7438 -103.865 -54.8108 -103.757ZM-57.0581 -106.012C-57.2782 -105.766 -57.4872 -105.509 -57.6845 -105.24L-59.3094 -106.586C-59.0801 -106.81 -58.8394 -107.022 -58.5883 -107.22L-57.0581 -106.012ZM-59.3454 -107.817C-59.5854 -107.619 -59.8164 -107.41 -60.0375 -107.189L-61.4516 -108.36C-61.1909 -108.535 -60.9207 -108.695 -60.6419 -108.84L-59.3454 -107.817ZM-61.4434 -109.472C-61.7045 -109.321 -61.9582 -109.158 -62.2036 -108.983L-63.3256 -109.912C-63.0233 -110.033 -62.7127 -110.137 -62.395 -110.223L-61.4434 -109.472ZM-63.3842 -110.898C-63.6412 -110.805 -63.8931 -110.701 -64.1394 -110.586L-64.8206 -111.15C-64.5502 -111.187 -64.278 -111.209 -64.005 -111.218C-63.7948 -111.121 -63.5876 -111.014 -63.3842 -110.898ZM-235.192 110.119C-235.707 111.319 -235.926 112.634 -235.817 113.955C-235.627 116.247 -234.468 118.349 -232.629 119.733L-232.567 119.78C-232.397 119.482 -232.211 119.192 -232.008 118.912L-229.111 114.917L-235.192 110.119ZM-228.37 115.502L-231.243 119.465C-231.45 119.75 -231.638 120.047 -231.806 120.353L-225.616 125.018L-222.319 120.277L-228.37 115.502ZM-221.578 120.861L-224.863 125.585L-218.83 130.131L-215.724 125.481L-221.578 120.861ZM-214.983 126.065L-218.079 130.697L-212.242 135.096L-209.312 130.54L-214.983 126.065ZM-208.569 131.126L-211.488 135.664L-205.829 139.928L-203.066 135.469L-208.569 131.126ZM-202.321 136.056L-205.074 140.497L-199.584 144.634L-196.976 140.274L-202.321 136.056ZM-196.227 140.865L-198.824 145.207L-193.487 149.229L-191.025 144.97L-196.227 140.865ZM-190.277 145.56L-192.728 149.8L-187.534 153.715L-185.209 149.559L-190.277 145.56ZM-184.46 150.149L-186.775 154.287L-181.712 158.102L-179.517 154.05L-184.46 150.149ZM-178.767 154.642L-180.952 158.674L-176.015 162.394L-173.942 158.449L-178.767 154.642ZM-173.187 159.044L-175.251 162.97L-15.6885 283.21C-12.1272 285.891 -7.0398 285.183 -4.34872 281.633L159.652 65.1873C160.855 63.6022 161.426 61.6364 161.263 59.6549L161.259 59.6596C161.069 57.3715 159.91 55.2651 158.075 53.881L-39.6079 -95.0851L-40.2204 -93.9199L144.98 52.2169C146.879 53.7142 148.08 55.9535 148.281 58.3617C148.467 60.5833 147.802 62.7704 146.415 64.5172L-17.3083 270.875C-20.3128 274.661 -25.8482 275.305 -29.6421 272.31L-173.187 159.044ZM-40.9761 -94.5162L-40.3737 -95.6621L-42.3164 -97.126L-42.9056 -96.0388L-40.9761 -94.5162ZM-43.6553 -96.6303L-43.0763 -97.6987L-44.9961 -99.1454L-45.5616 -98.1346L-43.6553 -96.6303ZM-46.3102 -98.7252L-45.7551 -99.7173L-47.6493 -101.145L-48.1904 -100.209L-46.3102 -98.7252ZM-48.9412 -100.801L-48.4109 -101.719L-50.2432 -103.099C-50.43 -102.846 -50.6056 -102.583 -50.7694 -102.309L-50.796 -102.265L-48.9412 -100.801ZM-51.5413 -102.853C-51.3707 -103.134 -51.1886 -103.405 -50.9956 -103.666L-52.6852 -104.94C-52.9024 -104.721 -53.1102 -104.49 -53.3077 -104.247L-51.5413 -102.853ZM-54.0478 -104.831C-53.8554 -105.068 -53.6539 -105.295 -53.4442 -105.511L-54.9557 -106.651C-55.1942 -106.476 -55.4241 -106.289 -55.6448 -106.091L-54.0478 -104.831ZM-56.3968 -106.684C-56.1856 -106.88 -55.9665 -107.066 -55.74 -107.242L-57.0189 -108.205C-57.2821 -108.076 -57.5382 -107.935 -57.7864 -107.781L-56.3968 -106.684ZM-58.5663 -108.396C-58.3341 -108.551 -58.0952 -108.697 -57.8501 -108.832L-58.7965 -109.545C-59.0952 -109.468 -59.388 -109.377 -59.6738 -109.27L-58.5663 -108.396ZM-60.5226 -109.94C-60.2932 -110.041 -60.0592 -110.133 -59.8211 -110.217C-60.018 -110.326 -60.2182 -110.425 -60.421 -110.516C-60.6737 -110.509 -60.9272 -110.49 -61.1809 -110.459L-60.5226 -109.94ZM-232.803 125.032C-232.91 123.726 -232.706 122.421 -232.219 121.222L-226.155 125.793L-229.056 129.965C-229.267 130.268 -229.46 130.583 -229.633 130.907C-231.46 129.476 -232.608 127.353 -232.803 125.032ZM-228.284 130.503L-225.402 126.359L-219.355 130.916L-222.696 135.917L-228.865 131.469C-228.693 131.136 -228.5 130.813 -228.284 130.503ZM-221.934 136.467L-218.603 131.483L-212.753 135.891L-215.914 140.808L-221.934 136.467ZM-215.15 141.359L-211.999 136.459L-206.328 140.733L-209.321 145.563L-215.15 141.359ZM-208.555 146.115L-205.572 141.302L-200.071 145.448L-202.907 150.189L-208.555 146.115ZM-202.136 150.745L-199.31 146.021L-193.962 150.051L-196.651 154.701L-202.136 150.745ZM-195.882 155.255L-193.204 150.622L-187.998 154.545L-190.548 159.102L-195.882 155.255ZM-189.779 159.656L-187.239 155.117L-182.166 158.94L-184.585 163.402L-189.779 159.656ZM-183.815 163.957L-181.406 159.512L-176.46 163.24L-178.755 167.607L-183.815 163.957ZM-177.981 168.164L-175.695 163.816L-16.2505 283.964C-12.2762 286.962 -6.59622 286.17 -3.5936 282.203L160.408 65.7575C161.75 63.9871 162.388 61.7908 162.204 59.5815C161.993 57.0239 160.694 54.6755 158.646 53.13L-39.1645 -95.9287L-38.6398 -96.9269L171.76 54.8085C173.739 56.2371 174.987 58.4495 175.191 60.8783C175.354 62.8598 174.8 64.8359 173.631 66.4462L9.35168 292.98C6.65321 296.703 1.41505 297.544 -2.3154 294.85L-177.981 168.164ZM-39.4151 -97.4859L-39.9303 -96.5057L-41.8631 -97.9622L-41.3608 -98.8891L-39.4151 -97.4859ZM-42.1303 -99.4441L-42.6231 -98.5349L-44.5327 -99.9738L-44.2943 -100.4C-44.2136 -100.544 -44.13 -100.685 -44.0435 -100.824L-42.1303 -99.4441ZM-45.1151 -100.861L-45.2917 -100.546L-47.1557 -101.95C-46.9859 -102.202 -46.8056 -102.445 -46.6155 -102.679L-44.809 -101.376C-44.915 -101.208 -45.0171 -101.036 -45.1151 -100.861ZM-47.3835 -103.233C-47.5684 -103.003 -47.7448 -102.766 -47.9121 -102.52L-49.6486 -103.829C-49.4585 -104.041 -49.2595 -104.243 -49.0525 -104.436L-47.3835 -103.233ZM-49.8301 -104.997C-50.0286 -104.805 -50.2199 -104.605 -50.4037 -104.398L-51.9769 -105.583C-51.7652 -105.757 -51.5469 -105.92 -51.3227 -106.073L-49.8301 -104.997ZM-52.1298 -106.655C-52.3416 -106.501 -52.5482 -106.337 -52.749 -106.165L-54.1178 -107.197C-53.8837 -107.331 -53.6433 -107.456 -53.397 -107.569L-52.1298 -106.655ZM-54.2625 -108.194C-54.4902 -108.074 -54.7129 -107.945 -54.9301 -107.809L-56.0117 -108.624C-55.7441 -108.716 -55.4707 -108.797 -55.1923 -108.864L-54.2625 -108.194ZM-56.2486 -109.535C-56.4682 -109.461 -56.6844 -109.379 -56.897 -109.291L-57.535 -109.772C-57.2992 -109.797 -57.0637 -109.812 -56.8289 -109.818C-56.6325 -109.731 -56.4389 -109.637 -56.2486 -109.535ZM-229.257 132.346C-229.711 133.538 -229.899 134.825 -229.793 136.107C-229.6 138.437 -228.482 140.558 -226.698 142.029C-226.521 141.683 -226.323 141.345 -226.104 141.017L-223.219 136.7L-229.257 132.346ZM-222.457 137.25L-225.322 141.538C-225.55 141.88 -225.753 142.234 -225.93 142.597L-219.794 146.841L-216.424 141.6L-222.457 137.25ZM-215.659 142.152L-219.019 147.377L-213.018 151.527L-209.818 146.364L-215.659 142.152ZM-209.052 146.917L-212.242 152.064L-206.432 156.082L-203.391 150.999L-209.052 146.917ZM-202.621 151.555L-205.651 156.621L-200.015 160.52L-197.124 155.519L-202.621 151.555ZM-196.355 156.074L-199.237 161.058L-193.76 164.845L-191.01 159.928L-196.355 156.074ZM-190.241 160.483L-192.982 165.383L-187.655 169.067L-185.037 164.236L-190.241 160.483ZM-184.267 164.791L-186.877 169.606L-181.691 173.192L-179.197 168.448L-184.267 164.791ZM-178.423 169.005L-180.908 173.733L11.0535 306.491C12.9449 307.796 15.2322 308.293 17.5009 307.884C19.7653 307.475 21.737 306.211 23.0514 304.323L187.609 67.705C188.746 66.0695 189.285 64.0785 189.118 62.1017L189.122 62.097C188.908 59.5229 187.567 57.205 185.445 55.7359L-37.7496 -98.6187C-37.7718 -98.5777 -37.7938 -98.5365 -37.8155 -98.4952L-38.1978 -97.7679L172.313 54.0472C174.517 55.6357 175.905 58.0943 176.131 60.8008C176.314 63.0018 175.697 65.2038 174.396 66.9983L10.1165 293.528C7.11115 297.671 1.28612 298.607 -2.86805 295.611L-178.423 169.005ZM-38.973 -98.327L-38.6543 -98.9333C-38.6144 -99.0094 -38.5737 -99.0849 -38.5322 -99.1599L-40.4276 -100.471C-40.5963 -100.229 -40.7557 -99.9783 -40.9052 -99.7204L-38.973 -98.327ZM-41.672 -100.273C-41.5237 -100.524 -41.3668 -100.769 -41.2016 -101.006L-42.9819 -102.237C-43.1652 -102.033 -43.3412 -101.82 -43.5093 -101.598L-41.672 -100.273ZM-44.2739 -102.15C-44.1103 -102.366 -43.9398 -102.576 -43.7629 -102.777L-45.4126 -103.918C-45.6098 -103.748 -45.8004 -103.569 -45.984 -103.383L-44.2739 -102.15ZM-46.7586 -103.942C-46.5826 -104.125 -46.4004 -104.302 -46.2125 -104.471L-47.6911 -105.494C-47.9033 -105.358 -48.11 -105.213 -48.3106 -105.061L-46.7586 -103.942ZM-49.1061 -105.635C-48.917 -105.786 -48.7228 -105.931 -48.5238 -106.07L-49.7701 -106.932C-50.0003 -106.831 -50.2268 -106.722 -50.4489 -106.603L-49.1061 -105.635ZM-51.2894 -107.209C-51.0848 -107.33 -50.8764 -107.444 -50.6646 -107.55L-51.5846 -108.187C-51.8451 -108.127 -52.1012 -108.057 -52.3526 -107.976L-51.2894 -107.209ZM-53.2801 -108.645C-53.0836 -108.723 -52.8842 -108.795 -52.6819 -108.86C-52.861 -108.953 -53.0428 -109.04 -53.2268 -109.119C-53.4464 -109.115 -53.6665 -109.103 -53.8868 -109.082L-53.2801 -108.645ZM-226.784 147.181C-226.89 145.904 -226.724 144.652 -226.302 143.477L-220.3 147.628L-223.156 152.07C-223.38 152.42 -223.581 152.779 -223.759 153.147C-225.503 151.64 -226.591 149.52 -226.784 147.181ZM-222.363 152.576L-219.525 148.164L-213.511 152.323L-216.9 157.791L-222.857 153.833C-222.904 153.802 -222.951 153.77 -222.997 153.737C-222.815 153.34 -222.603 152.952 -222.363 152.576ZM-216.114 158.313L-212.735 152.86L-206.913 156.887L-210.14 162.282L-216.114 158.313ZM-209.351 162.806L-206.133 157.426L-200.485 161.333L-203.561 166.654L-209.351 162.806ZM-202.774 167.176L-199.707 161.871L-194.22 165.666L-197.154 170.911L-202.774 167.176ZM-196.367 171.433L-193.442 166.204L-188.104 169.895L-190.905 175.063L-196.367 171.433ZM-190.118 175.585L-187.326 170.434L-182.13 174.027L-184.804 179.116L-190.118 175.585ZM-184.014 179.641L-181.347 174.568L10.5148 307.263C12.6131 308.714 15.1542 309.263 17.6685 308.809C20.1865 308.352 22.3708 306.948 23.8271 304.857L188.385 68.2391C189.646 66.4245 190.241 64.2169 190.059 62.02C189.822 59.164 188.335 56.5923 185.98 54.9644L-37.2642 -99.4306C-37.1167 -99.6547 -36.9614 -99.8725 -36.7989 -100.084L199.127 56.6681C201.396 58.1771 202.83 60.6005 203.054 63.32L203.05 63.3246C203.221 65.3303 202.711 67.2841 201.588 68.9639L36.7517 315.67C35.4307 317.639 33.4273 318.982 31.0985 319.445C28.7697 319.908 26.3984 319.443 24.4224 318.131L-184.014 179.641ZM-37.5888 -100.608C-37.7466 -100.401 -37.8979 -100.188 -38.0426 -99.9689L-39.8532 -101.221C-39.692 -101.413 -39.5242 -101.599 -39.3503 -101.779L-37.5888 -100.608ZM-40.1461 -102.307C-40.313 -102.13 -40.4744 -101.947 -40.6302 -101.759L-42.3094 -102.92C-42.1341 -103.082 -41.9537 -103.237 -41.7687 -103.386L-40.1461 -102.307ZM-42.5895 -103.931C-42.7647 -103.783 -42.9357 -103.628 -43.1024 -103.468L-44.6329 -104.527C-44.4447 -104.659 -44.2517 -104.785 -44.0542 -104.904L-42.5895 -103.931ZM-44.9149 -105.476C-45.099 -105.355 -45.2792 -105.228 -45.4553 -105.096L-46.7793 -106.011C-46.5737 -106.114 -46.3639 -106.209 -46.1502 -106.297L-44.9149 -105.476ZM-47.0771 -106.913C-47.272 -106.819 -47.4635 -106.719 -47.6515 -106.614L-48.6841 -107.329C-48.4507 -107.398 -48.2147 -107.459 -47.9766 -107.51L-47.0771 -106.913ZM-49.1059 -108.182C-49.2881 -108.124 -49.4688 -108.062 -49.6477 -107.995L-50.2254 -108.395C-50.025 -108.41 -49.8246 -108.419 -49.6247 -108.422C-49.4498 -108.348 -49.2768 -108.268 -49.1059 -108.182ZM-223.351 154.633C-223.737 155.788 -223.886 157.01 -223.783 158.252C-223.588 160.599 -222.527 162.723 -220.819 164.264C-220.639 163.874 -220.434 163.492 -220.203 163.122L-217.395 158.59L-223.351 154.633ZM-216.61 159.112L-219.403 163.619C-219.655 164.026 -219.874 164.447 -220.06 164.879C-219.909 164.988 -219.755 165.093 -219.597 165.194L-214.016 168.762L-210.623 163.089L-216.61 159.112ZM-209.834 163.614L-213.218 169.272L-207.272 173.074L-204.032 167.469L-209.834 163.614ZM-203.245 167.992L-206.477 173.582L-200.711 177.269L-197.614 171.733L-203.245 167.992ZM-196.827 172.256L-199.916 177.777L-194.316 181.358L-191.354 175.892L-196.827 172.256ZM-190.567 176.415L-193.521 181.866L-188.079 185.346L-185.244 179.952L-190.567 176.415ZM-184.454 180.478L-187.281 185.856L37.7991 329.766C42.0523 332.486 47.7257 331.246 50.4547 327.004L215.569 70.2139C216.664 68.5125 217.156 66.5484 216.989 64.5339L216.989 64.5381C216.752 61.6738 215.228 59.1444 212.808 57.596L-35.7073 -101.298C-35.8745 -101.139 -36.0367 -100.973 -36.1936 -100.803L199.639 55.8868C202.155 57.5572 203.735 60.2386 203.986 63.2435C204.168 65.4656 203.612 67.6221 202.37 69.4846L37.5294 316.187C36.0764 318.37 33.8521 319.854 31.2785 320.369C28.7044 320.88 26.08 320.367 23.8976 318.914L-184.454 180.478ZM-36.9906 -101.332C-36.8402 -101.5 -36.6851 -101.663 -36.5256 -101.822L-38.1356 -102.851C-38.312 -102.718 -38.4842 -102.58 -38.6518 -102.436L-36.9906 -101.332ZM-39.4631 -102.975C-39.3046 -103.117 -39.1422 -103.255 -38.976 -103.388L-40.4113 -104.306C-40.5979 -104.2 -40.7814 -104.088 -40.9616 -103.971L-39.4631 -102.975ZM-41.8099 -104.534C-41.6425 -104.652 -41.4723 -104.765 -41.2994 -104.874L-42.5236 -105.656C-42.7248 -105.578 -42.9228 -105.493 -43.1173 -105.403L-41.8099 -104.534ZM-44.0228 -106.004C-43.8462 -106.098 -43.6667 -106.187 -43.4845 -106.271L-44.3732 -106.839C-44.5176 -106.809 -44.6617 -106.776 -44.8055 -106.74C-44.8831 -106.72 -44.9603 -106.7 -45.0371 -106.678L-44.0228 -106.004ZM-46.0406 -107.345C-45.8758 -107.404 -45.7092 -107.459 -45.5407 -107.51C-45.6987 -107.586 -45.8584 -107.658 -46.0197 -107.725C-46.2078 -107.724 -46.3956 -107.718 -46.5829 -107.705L-46.0406 -107.345ZM-220.781 169.332C-220.881 168.124 -220.75 166.931 -220.399 165.798C-220.303 165.864 -220.206 165.929 -220.107 165.991L-214.503 169.575L-217.252 174.17C-217.487 174.564 -217.695 174.97 -217.876 175.384C-219.535 173.806 -220.588 171.649 -220.781 169.332ZM-216.44 174.658L-213.705 170.085L-207.747 173.894L-211.143 179.77L-216.34 176.568C-216.611 176.401 -216.871 176.221 -217.121 176.029C-216.932 175.559 -216.705 175.1 -216.44 174.658ZM-210.341 180.265L-206.952 174.403L-201.174 178.097L-204.426 183.909L-210.341 180.265ZM-203.623 184.404L-200.379 178.605L-194.769 182.192L-197.884 187.94L-203.623 184.404ZM-197.082 188.435L-193.974 182.7L-188.521 186.186L-191.508 191.869L-197.082 188.435ZM-190.702 192.366L-187.723 186.697L37.2883 330.56C41.9785 333.555 48.2393 332.191 51.2478 327.511L216.362 70.7206C217.573 68.8412 218.115 66.678 217.93 64.4564C217.667 61.2979 215.985 58.508 213.314 56.7987L-34.9675 -101.943C-34.812 -102.066 -34.653 -102.185 -34.4906 -102.3L226.484 58.5205C229.02 60.0836 230.678 62.7885 230.925 65.7563C231.093 67.7708 230.615 69.7498 229.548 71.4728L64.1509 338.352C62.8302 340.488 60.7456 341.984 58.2933 342.564C55.8451 343.142 53.3136 342.735 51.1686 341.411L-190.702 192.366ZM-35.3592 -102.835C-35.5111 -102.72 -35.66 -102.601 -35.8059 -102.479L-37.2877 -103.426C-37.1231 -103.526 -36.9555 -103.622 -36.785 -103.713L-35.3592 -102.835ZM-37.6978 -104.276C-37.8545 -104.182 -38.0088 -104.085 -38.1606 -103.984L-39.4299 -104.796C-39.2526 -104.873 -39.0731 -104.945 -38.8919 -105.012L-37.6978 -104.276ZM-39.8864 -105.625C-40.0492 -105.552 -40.2103 -105.476 -40.3697 -105.396L-41.3613 -106.031C-41.1627 -106.082 -40.9634 -106.126 -40.7636 -106.165L-39.8864 -105.625ZM-41.9719 -106.838C-42.1186 -106.794 -42.264 -106.749 -42.408 -106.7L-42.9203 -107.027C-42.7594 -107.036 -42.5987 -107.04 -42.4381 -107.041C-42.2816 -106.978 -42.1261 -106.91 -41.9719 -106.838ZM-217.442 176.962C-217.761 178.074 -217.877 179.237 -217.779 180.411C-217.587 182.735 -216.558 184.892 -214.93 186.503C-214.748 186.066 -214.536 185.638 -214.295 185.222L-211.614 180.584L-216.833 177.367C-217.042 177.239 -217.244 177.104 -217.442 176.962ZM-210.811 181.078L-213.481 185.696C-213.756 186.173 -213.989 186.666 -214.181 187.172C-213.833 187.451 -213.463 187.709 -213.075 187.94L-208.277 190.794L-204.885 184.73L-210.811 181.078ZM-204.083 185.224L-207.468 191.275L-201.587 194.773L-198.332 188.768L-204.083 185.224ZM-197.53 189.262L-200.777 195.254L-195.071 198.648L-191.946 192.703L-197.53 189.262ZM-191.141 193.199L-194.259 199.131L64.5463 353.055C66.7748 354.376 69.3866 354.757 71.8991 354.124C74.4158 353.49 76.5322 351.915 77.863 349.693L243.534 72.7306C244.578 70.9855 245.041 68.9957 244.873 66.9771L244.869 66.9735C244.611 63.8562 242.851 61.0427 240.164 59.4443L-33.1459 -103.109C-33.3025 -103.03 -33.4568 -102.947 -33.6088 -102.86L226.981 57.7201C229.771 59.4354 231.594 62.4126 231.865 65.6747C232.05 67.8922 231.526 70.0656 230.351 71.9615L64.9538 338.837C63.4975 341.191 61.2054 342.835 58.5089 343.47C55.8082 344.106 53.0247 343.659 50.6701 342.203L-191.141 193.199ZM-34.5147 -103.418C-34.3756 -103.506 -34.2346 -103.59 -34.0917 -103.671L-35.2763 -104.376C-35.4421 -104.318 -35.606 -104.256 -35.7678 -104.19L-34.5147 -103.418ZM-36.7388 -104.789C-36.5946 -104.857 -36.4488 -104.923 -36.3014 -104.986L-37.1472 -105.489C-37.3292 -105.456 -37.5103 -105.418 -37.6902 -105.375L-36.7388 -104.789ZM-38.781 -106.047C-38.6531 -106.089 -38.5244 -106.128 -38.3951 -106.165C-38.537 -106.23 -38.68 -106.291 -38.8241 -106.349C-38.9683 -106.349 -39.1127 -106.347 -39.2572 -106.341L-38.781 -106.047ZM-214.786 191.488C-214.881 190.348 -214.778 189.214 -214.488 188.126C-214.192 188.347 -213.884 188.553 -213.563 188.744L-208.736 191.615L-211.343 196.274C-211.589 196.712 -211.804 197.163 -211.987 197.625C-213.586 195.986 -214.592 193.824 -214.786 191.488ZM-210.522 196.735L-207.927 192.096L-202.035 195.6L-205.416 201.837L-209.819 199.306C-210.325 199.015 -210.8 198.683 -211.241 198.315C-211.048 197.773 -210.808 197.245 -210.522 196.735ZM-204.599 202.306L-201.226 196.082L-195.509 199.482L-198.759 205.663L-204.599 202.306ZM-197.94 206.134L-194.697 199.965L64.0581 353.862C66.5003 355.316 69.3637 355.731 72.1235 355.033C74.8838 354.34 77.2072 352.612 78.6654 350.174L244.336 73.211C245.48 71.2941 245.99 69.1099 245.805 66.8965C245.523 63.4808 243.594 60.3955 240.645 58.6419L-32.0967 -103.573C-31.9506 -103.629 -31.803 -103.681 -31.6538 -103.731L253.849 60.3718C256.687 62.0056 258.545 64.9281 258.816 68.1902L258.813 68.1949C258.977 70.2181 258.528 72.2187 257.508 73.9859L91.5586 361.037C88.8075 365.797 82.6864 367.436 77.9152 364.695L-197.94 206.134ZM-32.7158 -104.342C-32.8472 -104.288 -32.9774 -104.232 -33.1063 -104.174L-34.0386 -104.728C-33.8774 -104.764 -33.7159 -104.795 -33.5541 -104.823L-32.7158 -104.342ZM-35.056 -105.434C-35.0936 -105.423 -35.1311 -105.412 -35.1686 -105.4L-35.5913 -105.652C-35.4672 -105.655 -35.3429 -105.656 -35.2185 -105.655C-35.0912 -105.605 -34.9645 -105.552 -34.8388 -105.497C-34.9113 -105.477 -34.9837 -105.456 -35.056 -105.434ZM-211.532 199.283C-211.796 200.35 -211.886 201.455 -211.793 202.564C-211.599 204.911 -210.613 207.079 -209.04 208.744C-208.857 208.26 -208.64 207.787 -208.391 207.326L-205.862 202.661L-210.29 200.116C-210.726 199.865 -211.14 199.587 -211.532 199.283ZM-205.046 203.13L-207.563 207.774C-207.857 208.317 -208.102 208.881 -208.295 209.458C-207.765 209.916 -207.185 210.323 -206.559 210.671L-202.56 212.895L-199.195 206.493L-205.046 203.13ZM-198.376 206.964L-201.735 213.354L91.2841 376.335C93.6817 377.669 96.4532 377.988 99.0938 377.242C101.734 376.496 103.923 374.765 105.262 372.375L271.49 75.2401C272.486 73.4549 272.926 71.4429 272.761 69.4114C272.479 65.9999 270.523 62.9641 267.53 61.2998L-29.9446 -104.153C-30.0869 -104.13 -30.229 -104.104 -30.3709 -104.075L254.316 59.5628C257.425 61.3507 259.456 64.5486 259.75 68.1179C259.93 70.3318 259.441 72.5216 258.322 74.4565L92.3723 361.508C89.3596 366.715 82.66 368.516 77.441 365.513L-198.376 206.964ZM-31.547 -104.751L-31.9388 -104.976C-31.8374 -104.978 -31.7361 -104.978 -31.6348 -104.977C-31.5127 -104.93 -31.3911 -104.881 -31.2701 -104.829C-31.3625 -104.804 -31.4549 -104.778 -31.547 -104.751ZM-208.8 213.636C-208.888 212.562 -208.81 211.489 -208.573 210.45C-208.09 210.836 -207.571 211.185 -207.02 211.492L-202.998 213.729L-205.442 218.379C-205.695 218.86 -205.912 219.354 -206.095 219.86C-207.64 218.169 -208.606 215.996 -208.8 213.636ZM-204.604 218.813L-202.173 214.188L90.8346 377.151C93.4485 378.603 96.4756 378.956 99.3584 378.138C102.242 377.324 104.633 375.437 106.094 372.827L272.322 75.6916C273.411 73.7438 273.89 71.5426 273.705 69.3293C273.396 65.6029 271.263 62.2922 267.991 60.4748L-28.2552 -104.295C-28.1826 -104.295 -28.11 -104.295 -28.0374 -104.294C-27.6 -104.128 -27.1709 -103.932 -26.7525 -103.707L281.206 62.2242C284.358 63.9228 286.415 67.063 286.709 70.6281L286.709 70.6323C286.879 72.6632 286.449 74.6906 285.472 76.4943L118.966 383.718C116.2 388.823 109.782 390.731 104.661 387.975L-203.299 222.036C-204.047 221.634 -204.733 221.15 -205.349 220.599C-205.156 219.986 -204.907 219.389 -204.604 218.813ZM-205.615 221.613C-205.041 222.086 -204.416 222.507 -203.746 222.868L104.218 388.806C109.793 391.81 116.788 389.728 119.802 384.165L286.308 76.9412C287.373 74.9755 287.834 72.764 287.654 70.5501C287.329 66.6706 285.089 63.2478 281.659 61.4002L-24.8741 -103.766C-24.2973 -103.578 -23.7324 -103.34 -23.1846 -103.054L294.884 63.1568C298.19 64.882 300.349 68.1349 300.657 71.8489L300.661 71.8484C300.832 73.8834 300.416 75.9257 299.458 77.748L132.674 395.056C131.327 397.614 129.065 399.497 126.301 400.359C123.533 401.221 120.601 400.956 118.034 399.615L-200.037 233.409C-203.34 231.679 -205.499 228.431 -205.807 224.713C-205.895 223.669 -205.829 222.627 -205.615 221.613Z" fill="white" fill-opacity="0.1"/>
</g>
<defs>
<clipPath id="clip0_2118_1542">
<rect width="340" height="205.022" fill="white" transform="translate(0 -55)"/>
</clipPath>
</defs>
</svg>
