<svg width="119" height="119" viewBox="0 0 119 119" fill="none" xmlns="http://www.w3.org/2000/svg">
<rect width="119" height="119" rx="59.5" fill="#FF678B" fill-opacity="0.1"/>
<rect x="9.74268" y="9.74268" width="99.5146" height="99.5146" rx="49.7573" fill="#FF678B" fill-opacity="0.3"/>
<path d="M76.6191 70.4896L47.51 41.3805C46.2403 40.1108 44.182 40.1108 42.9145 41.3805L41.3805 42.9123C40.1108 44.182 40.1108 46.2403 41.3805 47.5078L70.4896 76.617C71.7593 77.8866 73.8176 77.8866 75.0851 76.617L76.617 75.0851C77.8888 73.8176 77.8888 71.7593 76.6191 70.4896Z" fill="#FF678B"/>
<path d="M70.4896 41.3802L41.3805 70.4894C40.1108 71.759 40.1108 73.8174 41.3805 75.0849L42.9123 76.6167C44.182 77.8864 46.2403 77.8864 47.5078 76.6167L76.6191 47.5097C77.8888 46.24 77.8888 44.1817 76.6191 42.9142L75.0873 41.3824C73.8176 40.1105 71.7593 40.1105 70.4896 41.3802Z" fill="#FF678B"/>
</svg>
