<svg width="23" height="22" viewBox="0 0 23 22" fill="none" xmlns="http://www.w3.org/2000/svg">
<path d="M7.95825 3.45833C7.95825 2.65292 8.61118 2 9.41659 2H13.9999C14.8053 2 15.4583 2.65292 15.4583 3.45833C15.4583 4.26375 14.8053 4.91667 13.9999 4.91667H9.41659C8.61118 4.91667 7.95825 4.26375 7.95825 3.45833Z" fill="#C3C3C3"/>
<path fill-rule="evenodd" clip-rule="evenodd" d="M6.91667 3.45911C6.91667 3.38525 6.85341 3.3255 6.78024 3.33559C6.03015 3.43905 5.4071 3.66014 4.91509 4.1526C4.41359 4.65457 4.19792 5.28653 4.09709 6.03715C3.99998 6.7602 3.99998 7.67962 4 8.82039V14.3335C3.99998 15.4743 3.99998 16.3937 4.09709 17.1167C4.19792 17.8674 4.41359 18.4993 4.91509 19.0013C5.41666 19.5033 6.04827 19.7193 6.79847 19.8203C7.52098 19.9175 8.4396 19.9175 9.57922 19.9175H13.8374C14.9771 19.9175 15.8957 19.9175 16.6182 19.8203C17.3684 19.7193 18 19.5033 18.5016 19.0013C19.0031 18.4993 19.2188 17.8674 19.3196 17.1167C19.4167 16.3936 19.4167 15.4743 19.4167 14.3335V8.82041C19.4167 7.67962 19.4167 6.76022 19.3196 6.03715C19.2188 5.28653 19.0031 4.65457 18.5016 4.1526C18.0096 3.66014 17.3865 3.43905 16.6364 3.33559C16.5633 3.3255 16.5 3.38525 16.5 3.45911C16.5 4.83983 15.3808 5.95911 14 5.95911H9.41667C8.03596 5.95911 6.91667 4.83982 6.91667 3.45911ZM8.37663 9.49979C8.03145 9.49979 7.75163 9.77962 7.75163 10.1248C7.75163 10.47 8.03145 10.7498 8.37663 10.7498H15.0433C15.3885 10.7498 15.6683 10.47 15.6683 10.1248C15.6683 9.77962 15.3885 9.49979 15.0433 9.49979H8.37663ZM8.37663 13.6665C8.03145 13.6665 7.75163 13.9463 7.75163 14.2915C7.75163 14.6366 8.03145 14.9165 8.37663 14.9165H11.71C12.0552 14.9165 12.335 14.6366 12.335 14.2915C12.335 13.9463 12.0552 13.6665 11.71 13.6665H8.37663Z" fill="#C3C3C3"/>
</svg>
