<svg width="280" height="427" viewBox="0 0 280 427" fill="none" xmlns="http://www.w3.org/2000/svg">
<path fill-rule="evenodd" clip-rule="evenodd" d="M-289.659 11.0821C-291.658 12.3955 -292.782 14.6912 -292.585 17.0746C-292.494 18.1522 -292.13 19.2034 -291.533 20.112L-288.706 24.4034C-289.316 25.534 -289.604 26.8347 -289.496 28.1472C-289.393 29.3531 -288.966 30.5094 -288.254 31.4997L-285.55 35.2516C-286.22 36.4366 -286.531 37.8112 -286.416 39.2167L-286.416 39.2126C-286.305 40.5514 -285.809 41.8205 -284.979 42.8838L-282.422 46.1531C-283.134 47.3899 -283.469 48.8307 -283.348 50.2878L-283.352 50.2883C-283.228 51.7596 -282.66 53.1367 -281.703 54.272L-279.333 57.0819C-280.075 58.3566 -280.415 59.8373 -280.289 61.3559C-280.155 62.9684 -279.51 64.4531 -278.424 65.6556L-276.261 68.0461C-277.017 69.358 -277.366 70.878 -277.238 72.429C-277.094 74.1533 -276.355 75.7894 -275.149 77.0396L-273.218 79.0393C-273.977 80.3812 -274.327 81.9321 -274.195 83.4991C-274.043 85.3605 -273.218 87.1073 -271.874 88.4196L-270.192 90.0584C-270.941 91.424 -271.285 92.9955 -271.156 94.5738C-270.989 96.58 -270.08 98.4333 -268.596 99.7989L-267.187 101.095C-267.926 102.477 -268.253 104.042 -268.122 105.645L-268.122 105.641C-267.946 107.792 -266.95 109.76 -265.321 111.179L-264.197 112.159C-264.912 113.552 -265.227 115.119 -265.096 116.717C-264.905 119.014 -263.821 121.088 -262.046 122.559L-261.221 123.243C-261.905 124.644 -262.203 126.207 -262.074 127.79C-261.873 130.198 -260.671 132.441 -258.772 133.939L-258.255 134.347C-258.905 135.748 -259.186 137.302 -259.056 138.863C-258.845 141.421 -257.545 143.773 -255.498 145.315L-255.294 145.468C-255.907 146.867 -256.17 148.404 -256.042 149.941L-256.038 149.941C-255.82 152.595 -254.473 155.017 -252.341 156.608C-252.912 157.995 -253.153 159.507 -253.028 161.015C-252.807 163.684 -251.491 166.107 -249.393 167.741C-249.931 169.114 -250.148 170.587 -250.023 172.09C-249.798 174.777 -248.51 177.205 -246.442 178.883C-246.942 180.242 -247.14 181.691 -247.017 183.164L-247.022 183.161C-246.796 185.87 -245.53 188.306 -243.492 190.023C-243.96 191.367 -244.141 192.794 -244.02 194.24L-244.016 194.24C-243.796 196.922 -242.525 199.406 -240.533 201.161C-240.968 202.492 -241.134 203.898 -241.019 205.316L-241.023 205.316C-240.796 208.014 -239.547 210.509 -237.579 212.302C-237.986 213.618 -238.138 215 -238.022 216.392C-237.798 219.111 -236.568 221.611 -234.623 223.438C-235.003 224.739 -235.142 226.101 -235.029 227.468L-235.033 227.468C-234.805 230.206 -233.591 232.72 -231.666 234.582C-232.02 235.865 -232.147 237.204 -232.035 238.544C-231.807 241.301 -230.613 243.826 -228.712 245.72C-229.042 246.988 -229.158 248.307 -229.05 249.626L-229.051 249.622C-228.714 253.663 -226.368 257.194 -222.775 259.071L95.2977 425.281C98.0837 426.737 101.275 427.027 104.28 426.089C107.287 425.154 109.745 423.108 111.206 420.326L277.991 103.018C279.03 101.039 279.481 98.8204 279.3 96.6024C278.968 92.5648 276.622 89.0298 273.028 87.1527L-45.0441 -79.0572C-46.6484 -79.8956 -48.3868 -80.3462 -50.147 -80.3991C-51.3094 -80.8222 -52.5223 -81.0517 -53.7462 -81.0841C-54.921 -81.5152 -56.1368 -81.7373 -57.3455 -81.7641C-58.5061 -82.1997 -59.7235 -82.4319 -60.9537 -82.4551C-62.1072 -82.8936 -63.3199 -83.126 -64.5465 -83.1449C-65.7089 -83.592 -66.921 -83.8168 -68.1262 -83.8324C-69.2861 -84.2909 -70.5155 -84.5285 -71.7613 -84.5347C-72.8959 -84.9868 -74.101 -85.2207 -75.3245 -85.2258C-76.4723 -85.6945 -77.6974 -85.9331 -78.942 -85.9295C-80.0758 -86.3978 -81.2901 -86.6349 -82.5265 -86.6274C-83.6794 -87.1128 -84.9034 -87.3441 -86.1196 -87.3322C-87.2678 -87.8258 -88.4926 -88.0594 -89.7095 -88.0426C-90.836 -88.5389 -92.06 -88.785 -93.3134 -88.7593C-94.4495 -89.2662 -95.6725 -89.5024 -96.8874 -89.4744C-98.0024 -89.9895 -99.2291 -90.2428 -100.492 -90.2047C-101.544 -90.6982 -102.703 -90.9511 -103.9 -90.9365C-103.963 -90.9357 -104.026 -90.9342 -104.089 -90.9319C-105.212 -91.4675 -106.444 -91.7122 -107.666 -91.6639C-108.787 -92.2131 -110.024 -92.4632 -111.253 -92.4079C-112.367 -92.9682 -113.607 -93.2227 -114.839 -93.1599C-115.946 -93.7292 -117.185 -93.9877 -118.418 -93.9182C-119.516 -94.4979 -120.757 -94.762 -121.991 -94.6866C-124.043 -95.7997 -126.63 -95.7802 -128.715 -94.4141L-289.659 11.0821ZM-123.704 -94.3558C-125.186 -94.7435 -126.821 -94.5279 -128.2 -93.6249L-289.136 11.8702C-290.849 12.9924 -291.81 14.9574 -291.64 16.9966C-291.565 17.917 -291.254 18.8158 -290.74 19.5926L-288.146 23.5318C-287.747 23.005 -287.268 22.5339 -286.719 22.14L-125.496 -93.4403C-124.933 -93.8436 -124.329 -94.1476 -123.704 -94.3558ZM-287.595 24.3678C-287.217 23.8101 -286.737 23.3137 -286.165 22.9033L-124.951 -92.68C-124.115 -93.2781 -123.172 -93.622 -122.215 -93.7267C-121.91 -93.5414 -121.62 -93.3255 -121.351 -93.0799C-121.671 -92.9045 -121.981 -92.7015 -122.278 -92.4706L-282.455 32.1712L-287.595 24.3678ZM-288.11 25.3086C-288.476 26.1591 -288.634 27.1013 -288.555 28.0697C-288.469 29.106 -288.1 30.1021 -287.489 30.9545L-284.995 34.4169C-284.645 33.9671 -284.237 33.5569 -283.774 33.1974L-283.205 32.7546L-288.11 25.3086ZM-282.687 33.5414L-283.194 33.9365C-283.671 34.3065 -284.081 34.7393 -284.417 35.2179L-279.008 42.7261L-277.481 41.4445L-282.687 33.5414ZM-276.962 42.2323L-278.458 43.4885L-273.067 50.9716L-271.898 49.9194L-276.962 42.2323ZM-271.187 49.2793L-276.232 41.6198L-119.212 -90.1421L-118.117 -88.4796L-271.187 49.2793ZM-271.374 50.7139L-272.514 51.7393L-267.28 59.0027L-266.444 58.1989L-271.374 50.7139ZM-265.75 57.5328L-270.663 50.0739L-117.592 -87.6832L-116.421 -85.9055L-265.75 57.5328ZM-265.917 58.9986L-266.724 59.7743L-261.634 66.8393L-261.107 66.3007L-265.917 58.9986ZM-260.43 65.6099L-265.223 58.3325L-115.894 -85.1058L-114.652 -83.2192L-260.43 65.6099ZM-260.577 67.1042L-261.076 67.6136L-256.119 74.4938L-255.88 74.2352L-260.577 67.1042ZM-255.219 73.5209L-259.901 66.4134L-114.122 -82.4157L-112.816 -80.4332L-255.219 73.5209ZM-255.347 75.0445L-255.558 75.2727L-251.341 81.1246L-255.347 75.0445ZM-250.108 81.2803L-254.686 74.3302L-112.282 -79.6219L-110.917 -77.5503L-250.108 81.2803ZM-245.093 88.8951L-249.573 82.0934L-110.383 -76.7395L-108.961 -74.5796L-245.093 88.8951ZM-240.166 96.3741L-244.553 89.7138L-108.419 -73.7566L-106.952 -71.5299L-240.166 96.3741ZM-238.165 99.4124L-239.62 97.2036L-106.404 -70.6984L-104.889 -68.3986L-235.181 103.554L-238.165 99.4124ZM-223.108 122.272L-224.261 120.521L-222.414 122.883L-221.368 124.335L-223.108 122.272ZM-223.831 122.886L-221.779 126.002L-222.11 126.498L-226.869 121.237L-226.125 120.167L-223.831 122.886ZM-230.583 112.637L-228.259 116.165L-230.884 113.052L-230.583 112.637ZM-231.415 111.374L-231.137 111.795L-231.511 112.309L-236.316 106.612L-235.736 105.848L-231.415 111.374ZM-238.978 99.8927L-237.799 101.682L-240.467 98.2712L-240.299 98.0594L-238.978 99.8927ZM-221.217 126.854L-219.689 129.174L-221.46 127.217L-221.217 126.854ZM-216.641 132.09L-218.683 128.99L-216.393 131.705L-216.641 132.09ZM-215.542 133.759L-216.074 132.951L-215.758 132.459L-214.095 134.43L-211.534 137.984L-211.61 138.106L-215.542 133.759ZM-216.275 134.357L-216.686 133.902L-217.585 135.3L-212.887 140.166L-212.674 139.823L-216.275 134.357ZM-212.103 140.69L-212.211 140.865L-211.507 141.595L-212.103 140.69ZM-207.963 145.265L-211.557 139.809L-211.47 139.669L-207.008 144.601L-207.619 145.621L-207.963 145.265ZM-208.691 145.869L-208.207 146.604L-209.164 148.204L-213.9 143.59L-212.724 141.693L-208.691 145.869ZM-207.629 147.481L-203.79 153.31L-203.838 153.394L-208.468 148.883L-207.629 147.481ZM-203.263 152.4L-205.148 149.539L-202.935 151.831L-203.263 152.4ZM-200.406 156.738L-202.683 153.281L-202.253 152.537L-197.839 157.109L-198.611 158.487L-200.406 156.738ZM-201.129 157.349L-199.423 159.939L-200.246 161.41L-204.905 157.124L-203.628 154.915L-201.129 157.349ZM-198.839 160.825L-195.696 165.597L-199.534 162.066L-198.839 160.825ZM-194.595 165.56L-197.987 160.41L-193.941 164.353L-194.595 165.56ZM-192.841 168.224L-194.008 166.452L-193.24 165.035L-189.227 168.945L-188.925 169.365L-189.797 171.024L-192.841 168.224ZM-193.561 168.837L-194.722 167.769L-196.083 170.281L-191.505 174.272L-190.828 172.986L-193.561 168.837ZM-190.329 172.036L-190.707 171.464L-190.25 171.884L-190.329 172.036ZM-190.235 173.886L-190.773 174.91L-187.927 177.39L-190.235 173.886ZM-185.288 179.691L-189.736 172.937L-189.53 172.546L-180.936 180.454L-179.457 182.506C-180.46 182.669 -181.486 182.556 -182.421 182.189L-185.288 179.691ZM-185.994 180.325L-185.825 180.581C-185.092 181.695 -184.074 182.511 -182.929 182.996L-172.646 191.96L-172.441 192.245C-171.751 193.202 -170.854 193.923 -169.855 194.393L-159.281 203.609L-159.048 203.907C-158.417 204.715 -157.639 205.345 -156.782 205.788L-145.933 215.244L-145.665 215.563C-145.101 216.231 -144.439 216.77 -143.717 217.176L-132.549 226.911L-132.268 227.221C-131.787 227.753 -131.245 228.198 -130.661 228.556L-119.251 238.502L-118.889 238.876C-118.488 239.291 -118.05 239.651 -117.585 239.954L-105.85 250.183L-105.493 250.53C-105.198 250.818 -104.886 251.077 -104.559 251.308L-93.8882 260.609L-192.771 178.711L-191.223 175.767L-185.994 180.325ZM-180.924 183.494C-180.237 183.554 -179.537 183.505 -178.854 183.344L-175.067 188.6L-180.924 183.494ZM-177.139 182.67L-171.854 187.533L-176.15 182.039L-176.775 182.448C-176.895 182.527 -177.016 182.601 -177.139 182.67ZM-175.127 181.368L-171.635 184.772L-174.727 181.106L-175.127 181.368ZM-175.356 180.394L-175.817 180.696L-176.601 179.932L-180.009 175.575L-175.356 180.394ZM-173.462 180.277L-163.155 191.67L-162.574 192.273L-2.38712 77.4328C-0.720929 76.237 0.169707 74.3103 0.00248951 72.2665L-0.00162787 72.267C-0.0870541 71.2306 -0.456388 70.2345 -1.06668 69.3862L-78.6804 -38.3415L-81.0215 -33.8876L-13.9563 67.9264C-13.3593 68.835 -12.9955 69.8863 -12.9054 70.9597C-12.7076 73.3432 -13.8275 75.6424 -15.8351 76.9528L-173.462 180.277ZM-81.5256 -32.9286L-14.7537 68.4423C-14.2404 69.2191 -13.9254 70.1174 -13.8505 71.0378L-13.8459 71.0414C-13.6792 73.0811 -14.6403 75.0461 -16.353 76.1724L-174.1 179.571L-184.164 168.446L-186.142 166.1L-81.5256 -32.9286ZM-81.616 -34.79L-79.2984 -39.1993L-81.1548 -41.776L-83.4401 -37.5593L-81.616 -34.79ZM-83.9528 -36.6133L-82.1201 -33.831L-186.8 165.321L-190.815 160.56L-83.9528 -36.6133ZM-84.0273 -38.4507L-81.7656 -42.6238L-83.5992 -45.1689L-85.8281 -41.1846L-84.0273 -38.4507ZM-86.3497 -40.2523L-84.54 -37.5048L-191.467 159.788L-195.55 154.946L-86.3497 -40.2523ZM-86.4116 -42.0703L-84.2065 -46.0118L-86.0148 -48.5217L-88.1866 -44.7651L-86.4116 -42.0703ZM-88.7174 -43.8469L-86.9331 -41.138L-196.199 154.177L-200.353 149.251L-88.7174 -43.8469ZM-88.7686 -45.6487L-86.6212 -49.3633L-88.4043 -51.8383L-90.518 -48.3045L-88.7686 -45.6487ZM-91.0585 -47.401L-89.2994 -44.7305L-201 148.485L-203.698 145.286L-205.181 143.389L-91.0585 -47.401ZM-91.0935 -49.1781L-89.0041 -52.6709L-90.7601 -55.1082L-92.8152 -51.792L-91.0935 -49.1781ZM-93.3657 -50.9038L-91.6339 -48.2746L-205.806 142.59L-209.976 137.258L-93.3657 -50.9038ZM-93.3868 -52.6597L-91.3564 -55.9359L-93.0789 -58.3266L-95.0749 -55.2225L-93.3868 -52.6597ZM-95.6358 -54.3502L-93.9372 -51.7714L-210.594 136.467L-214.843 131.036L-95.6358 -54.3502ZM-95.6444 -56.0869L-93.6735 -59.152L-95.3661 -61.5014L-97.3022 -58.6038L-95.6444 -56.0869ZM-97.874 -57.7481L-96.2052 -55.2146L-215.457 130.249L-219.787 124.713L-97.874 -57.7481ZM-97.865 -59.4582L-95.9544 -62.3178L-97.6147 -64.6224L-99.4903 -61.9255L-97.865 -59.4582ZM-100.073 -61.0871L-98.4368 -58.6025L-220.397 123.933L-221.674 122.301L-224.694 118.109L-100.073 -61.0871ZM-100.047 -62.77L-98.1966 -65.4301L-99.8186 -67.6814L-101.633 -65.179L-100.047 -62.77ZM-102.228 -64.3586L-100.63 -61.9316L-225.277 117.3L-229.607 111.291L-102.228 -64.3586ZM-102.187 -66.0189L-100.398 -68.4854L-101.98 -70.6812L-103.733 -68.367L-102.187 -66.0189ZM-104.341 -67.5655L-102.782 -65.1985L-230.187 110.485L-234.604 104.354L-104.341 -67.5655ZM-104.282 -69.2001L-102.555 -71.4795L-104.092 -73.6127L-105.784 -71.4802L-104.282 -69.2001ZM-106.332 -72.3117L-104.667 -74.4104L-106.154 -76.4755L-107.785 -74.5178L-106.332 -72.3117ZM-108.327 -75.3407L-106.724 -77.2658L-108.167 -79.2688L-109.735 -77.479L-108.327 -75.3407ZM-110.269 -78.2898L-108.728 -80.0482L-110.112 -81.9682L-111.619 -80.3386L-110.269 -78.2898ZM-112.153 -81.1499L-110.674 -82.7491L-111.997 -84.5853L-113.444 -83.1086L-112.153 -81.1499ZM-113.973 -83.9121L-112.555 -85.3596L-113.813 -87.1052L-115.199 -85.7736L-113.973 -83.9121ZM-115.726 -86.5733L-114.369 -87.8769L-115.552 -89.5192L-116.879 -88.3245L-115.726 -86.5733ZM-117.404 -89.1209L-116.106 -90.2888L-116.88 -91.3627C-116.95 -91.4601 -117.023 -91.5547 -117.098 -91.6464C-117.574 -91.4234 -118.028 -91.1358 -118.448 -90.7826L-118.481 -90.7555L-117.404 -89.1209ZM-119.003 -91.5478C-118.619 -91.8635 -118.211 -92.1323 -117.787 -92.355C-118.052 -92.5839 -118.334 -92.7857 -118.63 -92.9598C-119.019 -92.9208 -119.406 -92.8436 -119.784 -92.7275C-119.742 -92.6683 -119.701 -92.6082 -119.661 -92.5471L-119.003 -91.5478ZM-120.693 -92.3644C-121.042 -92.1905 -121.379 -91.9797 -121.698 -91.7315L-281.937 32.958L-276.751 40.8319L-119.734 -90.9347L-120.454 -92.0277C-120.53 -92.1437 -120.61 -92.256 -120.693 -92.3644ZM-120.427 -93.5011C-120.343 -93.5321 -120.258 -93.5614 -120.174 -93.5891C-120.317 -93.6246 -120.461 -93.6547 -120.606 -93.6793C-120.546 -93.6212 -120.486 -93.5618 -120.427 -93.5011ZM-176.732 181.296L-177.293 181.664C-177.482 181.787 -177.675 181.898 -177.872 181.996L-180.22 179.836L-185.331 172.742L-177.308 180.559L-176.732 181.296ZM-285.479 39.1397C-285.567 38.0791 -285.372 37.0371 -284.934 36.1069L-279.729 43.3314L-280.829 44.2548C-281.217 44.5793 -281.565 44.941 -281.869 45.3322L-284.235 42.3077C-284.955 41.3896 -285.382 40.2961 -285.479 39.1397ZM-280.223 44.9696L-279.18 44.0938L-273.769 51.6037L-275.645 53.2915L-281.269 46.0994C-280.972 45.6849 -280.622 45.3045 -280.223 44.9696ZM-275.064 54.0342L-273.216 52.3714L-267.965 59.66L-269.506 61.1405L-275.064 54.0342ZM-268.923 61.8861L-267.409 60.4317L-262.301 67.5206L-263.533 68.7779L-268.923 61.8861ZM-262.949 69.5251L-261.744 68.2949L-256.77 75.1978L-257.714 76.2183L-262.949 69.5251ZM-257.127 76.969L-256.209 75.9767L-251.359 82.7079L-252.035 83.4793L-257.127 76.969ZM-251.447 84.232L-250.796 83.4896L-246.062 90.0598L-246.489 90.5716L-251.447 84.232ZM-245.897 91.3277L-245.496 90.8459L-240.872 97.2638L-241.065 97.5067L-245.897 91.3277ZM-205.77 144.374L-205.107 145.294L-203.484 147.089L-204.322 146.017L-205.744 144.33L-205.77 144.374ZM-202.322 150.771L-205.823 145.911L-206.345 145.334L-206.938 146.326L-202.443 150.982L-202.322 150.771ZM-210.808 138.992L-210.938 138.811L-210.952 138.833L-210.808 138.992ZM-201.365 152.098L-201.717 151.61L-201.762 151.687L-201.365 152.098ZM-200.122 152.213L-197.295 156.136L-197.019 155.643L-200.122 152.213ZM-197.912 159.168L-197.195 157.886L-193.338 163.24L-193.474 163.492L-197.912 159.168ZM-192.936 162.187L-192.839 162.321L-192.828 162.299L-192.936 162.187ZM-192.774 164.175L-192.727 164.088L-192.407 164.532L-192.774 164.175ZM-192.228 163.169L-188.511 168.328L-188.425 168.412L-187.896 167.407L-192.142 163.009L-192.228 163.169ZM-183.664 176.666L-188.308 170.221L-189.078 171.686L-183.664 176.666ZM-177.49 183.624L-171.944 191.322L-169.336 193.595C-168.516 193.959 -167.62 194.128 -166.726 194.09L-168.292 192.087L-177.49 183.624ZM-166.037 194.97C-166.601 195.049 -167.171 195.056 -167.733 194.992L-162.352 199.683L-166.037 194.97ZM-160.478 197.999L-164.301 194.482C-164.096 194.394 -163.894 194.294 -163.697 194.183L-160.478 197.999ZM-150.51 204.766L-161.913 192.957L-1.8378 78.1967C0.0661537 76.8283 1.13134 74.5276 0.939365 72.1895C0.840757 70.9831 0.413354 69.8268 -0.298704 68.8364L-78.19 -39.2744L-76.1403 -43.1739L12.6194 70.322C13.3391 71.2401 13.7674 72.3377 13.8633 73.49L13.8628 73.4859C14.031 75.5044 13.18 77.4471 11.5825 78.6886L-149.914 204.357C-150.107 204.507 -150.306 204.643 -150.51 204.766ZM-76.7796 -43.9913L-78.808 -40.1322L-80.6557 -42.6968L-78.6547 -46.389L-76.7796 -43.9913ZM-79.2869 -47.1974L-81.2666 -43.5446L-83.0911 -46.077L-81.1393 -49.566L-79.2869 -47.1974ZM-81.7683 -50.3703L-83.6985 -46.92L-85.4973 -49.4167L-83.5954 -52.7066L-81.7683 -50.3703ZM-84.2238 -53.5102L-86.1037 -50.2584L-87.877 -52.7197L-86.0259 -55.8144L-84.2238 -53.5102ZM-86.6479 -56.6099L-88.4769 -53.5523L-90.2227 -55.9754L-88.4229 -58.8795L-86.6479 -56.6099ZM-89.0418 -59.6708L-90.819 -56.8031L-92.5308 -59.179L-90.7829 -61.8972L-89.0418 -59.6708ZM-91.4006 -62.687L-93.1255 -60.0044L-94.807 -62.3383L-93.1119 -64.8752L-91.4006 -62.687ZM-93.7233 -65.657L-95.3952 -63.1547L-97.044 -65.4431L-95.4022 -67.8039L-93.7233 -65.657ZM-96.0075 -68.5778L-97.6258 -66.2508L-99.2357 -68.4852L-97.6477 -70.6751L-96.0075 -68.5778ZM-98.2507 -71.4462L-99.815 -69.2892L-101.384 -71.4673L-99.8504 -73.4916L-98.2507 -71.4462ZM-100.45 -74.258L-101.959 -72.2656L-103.483 -74.3803L-102.004 -76.2449L-100.45 -74.258ZM-102.603 -77.0114L-104.058 -75.1779L-105.531 -77.2236L-104.107 -78.9343L-102.603 -77.0114ZM-104.701 -79.6945L-106.101 -78.0139L-107.529 -79.9965L-106.16 -81.5593L-104.701 -79.6945ZM-106.747 -82.3097L-108.091 -80.7758L-109.459 -82.6743L-108.144 -84.096L-106.747 -82.3097ZM-108.732 -84.8487L-110.021 -83.4552L-111.328 -85.2687L-110.067 -86.5557L-108.732 -84.8487ZM-110.652 -87.3029L-111.886 -86.043L-113.126 -87.7647L-111.962 -88.8829C-111.948 -88.8966 -111.933 -88.9102 -111.919 -88.9238L-110.652 -87.3029ZM-112.614 -89.5626L-113.682 -88.5364L-114.837 -90.139C-114.418 -90.4632 -113.969 -90.7281 -113.501 -90.934C-113.435 -90.8573 -113.37 -90.7786 -113.306 -90.6978L-112.501 -89.6683C-112.539 -89.6335 -112.577 -89.5983 -112.614 -89.5626ZM-114.222 -91.6352C-114.627 -91.4317 -115.018 -91.1882 -115.388 -90.9043L-116.112 -91.9085C-116.132 -91.9367 -116.152 -91.9647 -116.173 -91.9925C-115.804 -92.0978 -115.427 -92.1679 -115.049 -92.2033C-114.76 -92.039 -114.484 -91.8495 -114.222 -91.6352ZM-116.65 -92.8308C-116.715 -92.8101 -116.78 -92.7884 -116.844 -92.7657C-116.89 -92.8109 -116.936 -92.8553 -116.983 -92.899C-116.872 -92.8794 -116.76 -92.8567 -116.65 -92.8308ZM-165.07 193.774C-164.814 193.685 -164.562 193.577 -164.316 193.449L-165.412 192.149L-172.28 185.457L-167.586 191.459L-165.07 193.774ZM-281.788 46.9637C-282.278 47.9564 -282.501 49.0764 -282.407 50.2061C-282.3 51.4826 -281.805 52.6764 -280.976 53.6604L-278.78 56.2648C-278.514 55.9241 -278.215 55.6038 -277.885 55.3081L-276.346 53.9224L-281.788 46.9637ZM-275.765 54.6651L-277.256 56.0074C-277.595 56.3119 -277.896 56.6458 -278.157 57.0035L-272.357 63.8794L-270.188 61.7958L-275.765 54.6651ZM-269.605 62.5413L-271.749 64.6007L-266.055 71.3523L-264.197 69.4561L-269.605 62.5413ZM-263.613 70.2033L-265.446 72.0744L-259.93 78.6139L-258.361 76.9182L-263.613 70.2033ZM-257.774 77.669L-259.319 79.3386L-253.967 85.6838L-252.667 84.1999L-257.774 77.669ZM-252.078 84.9525L-253.355 86.4096L-248.156 92.5738L-247.105 91.3116L-252.078 84.9525ZM-246.514 92.0678L-247.542 93.3022L-242.485 99.2972L-241.667 98.2653L-246.514 92.0678ZM-241.069 99.0298L-241.865 100.033L-236.939 105.874L-236.337 105.08L-241.069 99.0298ZM-185.603 168.422L-186.525 167.243L-184.952 168.983L-184.19 169.885L-185.603 168.422ZM-195.355 157.482L-192.32 161.363L-192.356 161.429L-196.675 156.956L-196.353 156.38L-195.355 157.482ZM-186.306 169.053L-181.629 175.034L-187.719 169.1L-187.205 168.122L-186.306 169.053ZM-158.591 202.961L-164.025 196.013L-155.668 203.702L-154.068 205.599C-154.826 205.538 -155.57 205.335 -156.258 204.994L-158.591 202.961ZM-154.534 206.498C-154.113 206.555 -153.687 206.575 -153.262 206.555L-149.914 210.524L-154.534 206.498ZM-151.514 206.247L-149.89 207.741L-151.304 206.178C-151.343 206.191 -151.381 206.204 -151.42 206.217C-151.451 206.227 -151.482 206.237 -151.514 206.247ZM-149.838 205.462L-140.913 214.706L-138.617 216.942C-137.763 216.717 -136.943 216.305 -136.222 215.701L25.5527 79.9485C27.0857 78.6607 27.9016 76.7057 27.7365 74.7119L27.737 74.716C27.6336 73.439 27.1387 72.2452 26.3055 71.2577L-73.8627 -47.5069L-75.6603 -44.0871L13.3631 69.7459C14.1933 70.8092 14.6936 72.0777 14.8048 73.4166C14.9958 75.7464 14.0083 77.9996 12.1632 79.4359L-149.333 205.104C-149.498 205.232 -149.666 205.351 -149.838 205.462ZM-76.2995 -44.9045L-74.5212 -48.2877L-76.4112 -50.5285L-78.1658 -47.2909L-76.2995 -44.9045ZM-78.798 -48.0993L-77.0628 -51.3011L-78.9301 -53.515L-80.6413 -50.4562L-78.798 -48.0993ZM-81.2703 -51.2605L-79.5787 -54.2841L-81.4207 -56.4681L-83.0878 -53.5846L-81.2703 -51.2605ZM-83.7162 -54.3881L-82.0693 -57.237L-83.8863 -59.3914L-85.5083 -56.6797L-83.7162 -54.3881ZM-86.1304 -57.4751L-84.5285 -60.1529L-86.3185 -62.2751L-87.8949 -59.7314L-86.1304 -57.4751ZM-88.5138 -60.5227L-86.9579 -63.0333L-88.7137 -65.1151L-90.2441 -62.7352L-88.5138 -60.5227ZM-90.8617 -63.525L-89.3524 -65.8723L-91.0784 -67.9187L-92.5617 -65.6987L-90.8617 -63.525ZM-93.1731 -66.4805L-91.711 -68.6688L-93.4044 -70.6766L-94.8401 -68.6121L-93.1731 -66.4805ZM-95.4454 -69.3861L-94.0311 -71.4196L-95.6854 -73.381L-97.0731 -71.4674L-95.4454 -69.3861ZM-97.6761 -72.2385L-96.3103 -74.1219L-97.9235 -76.0347L-99.2627 -74.2672L-97.6761 -72.2385ZM-99.862 -75.0335L-98.545 -76.7716L-100.112 -78.6292L-101.402 -77.0029L-99.862 -75.0335ZM-102.002 -77.7694L-100.734 -79.367L-102.25 -81.1642L-103.491 -79.6738L-102.002 -77.7694ZM-104.085 -80.4341L-102.868 -81.8966L-104.337 -83.6391L-105.529 -82.2794L-104.085 -80.4341ZM-106.116 -83.0298L-104.947 -84.3627L-106.354 -86.0305L-107.496 -84.7956L-106.116 -83.0298ZM-108.085 -85.5483L-106.967 -86.7571L-108.295 -88.3313C-108.439 -88.2068 -108.578 -88.0756 -108.713 -87.9381L-109.403 -87.2336L-108.085 -85.5483ZM-109.987 -87.9809L-109.387 -88.594C-109.23 -88.7537 -109.068 -88.9058 -108.901 -89.0502L-109.733 -90.037C-109.788 -90.1023 -109.844 -90.1661 -109.902 -90.2285C-110.35 -90.0435 -110.783 -89.8072 -111.191 -89.5194L-109.987 -87.9809ZM-111.772 -90.2622C-111.414 -90.5176 -111.04 -90.7382 -110.653 -90.9239C-110.908 -91.1232 -111.176 -91.3 -111.455 -91.4541C-111.825 -91.423 -112.193 -91.3598 -112.555 -91.2644L-111.772 -90.2622ZM-113.256 -92.0368C-113.209 -92.0524 -113.162 -92.0675 -113.115 -92.0822C-113.195 -92.1 -113.276 -92.1162 -113.357 -92.1308C-113.323 -92.0998 -113.289 -92.0685 -113.256 -92.0368ZM-152.003 205.406C-152.114 205.436 -152.226 205.464 -152.339 205.488L-154.943 203.092L-158.455 198.928L-153.46 203.795L-152.003 205.406ZM-279.348 61.2784C-279.448 60.0724 -279.211 58.8951 -278.681 57.8554L-273.044 64.5386L-274.941 66.3614C-275.225 66.6345 -275.485 66.9262 -275.72 67.2336L-277.721 65.0219C-278.671 63.9737 -279.233 62.6796 -279.348 61.2784ZM-274.29 67.041L-272.435 65.2599L-266.722 72.0337L-269.143 74.5049L-275.076 67.9456C-274.844 67.6242 -274.581 67.3213 -274.29 67.041ZM-268.511 75.2035L-266.113 72.7558L-260.58 79.3163L-262.708 81.6177L-268.511 75.2035ZM-262.075 82.3181L-259.968 80.041L-254.6 86.4059L-256.459 88.5267L-262.075 82.3181ZM-255.825 89.2276L-253.988 87.1317L-248.773 93.3147L-250.381 95.2455L-255.825 89.2276ZM-249.745 95.9482L-248.159 94.043L-243.087 100.056L-244.462 101.788L-249.745 95.9482ZM-243.82 102.498L-242.467 100.792L-237.526 106.649L-238.684 108.176L-243.82 102.498ZM-238.04 108.888L-236.903 107.388L-232.084 113.101L-233.039 114.417L-238.04 108.888ZM-232.392 115.132L-231.458 113.844L-226.753 119.422L-227.517 120.52L-232.392 115.132ZM-165.32 190.788L-164.676 191.552L-163.487 192.711L-163.827 192.335L-165.32 190.788ZM-150.133 208.795L-145.233 214.605L-143.19 216.385C-142.658 216.677 -142.09 216.885 -141.505 217.01L-142.998 215.36L-150.133 208.795ZM-140.534 218.083C-140.803 218.071 -141.07 218.044 -141.335 218.002L-137.895 221.001L-140.534 218.083ZM-126.564 228.687L-137.848 217.692C-137.056 217.415 -136.299 216.994 -135.62 216.424L26.155 80.6679C27.9232 79.1869 28.8643 76.9312 28.6734 74.6349C28.5537 73.1631 27.981 71.7864 27.0244 70.6512L-73.3912 -48.404L-71.8138 -51.4048L39.9956 72.1929C40.9408 73.2375 41.5034 74.5358 41.6184 75.937L41.6179 75.9329C41.7845 77.9391 41.0232 79.862 39.5269 81.2079L-122.526 227.048C-123.683 228.089 -125.118 228.631 -126.564 228.687ZM-72.4899 -52.1522L-74.0497 -49.1848L-75.9307 -51.415L-74.3918 -54.2546L-72.4899 -52.1522ZM-75.0611 -54.9945L-76.5823 -52.1876L-78.4403 -54.3905L-76.9403 -57.0718L-75.0611 -54.9945ZM-77.6069 -57.8088L-79.089 -55.1596L-80.9213 -57.332L-79.4608 -59.8581L-77.6069 -57.8088ZM-80.1278 -60.5954L-81.5698 -58.1009L-83.3768 -60.2432L-81.9568 -62.6172L-80.1278 -60.5954ZM-82.6175 -63.3476L-84.019 -61.0047L-85.7984 -63.1144L-84.4194 -65.3395L-82.6175 -63.3476ZM-85.0777 -66.0672L-86.4378 -63.8725L-88.1826 -65.9412L-86.8452 -68.021L-85.0777 -66.0672ZM-87.5032 -68.7483L-88.8213 -66.6984L-90.5356 -68.731L-89.2407 -70.6691L-87.5032 -68.7483ZM-89.8929 -71.39L-91.1683 -69.4811L-92.8496 -71.4744L-91.5977 -73.2746L-89.8929 -71.39ZM-92.2441 -73.9892L-93.4763 -72.2175L-95.1178 -74.1637L-93.9094 -75.83L-92.2441 -73.9892ZM-94.5544 -76.5431L-95.7427 -74.9046L-97.3425 -76.8014L-96.1782 -78.3381L-94.5544 -76.5431ZM-96.8203 -79.0478L-97.9641 -77.5383L-99.5167 -79.3792L-98.3969 -80.7906L-96.8203 -79.0478ZM-99.0403 -81.5018L-100.139 -80.117L-101.64 -81.8965L-100.565 -83.1873L-99.0403 -81.5018ZM-101.204 -83.894L-102.258 -82.629L-103.712 -84.3529L-102.682 -85.5277L-101.204 -83.894ZM-103.314 -86.2264L-104.322 -85.0764L-105.712 -86.7246L-105.468 -86.9886C-105.219 -87.2574 -104.954 -87.5042 -104.673 -87.7282L-103.314 -86.2264ZM-106.164 -87.6249L-106.325 -87.4512L-107.544 -88.8962C-107.153 -89.1498 -106.739 -89.3617 -106.307 -89.5297C-106.257 -89.4782 -106.208 -89.4256 -106.16 -89.3721L-105.305 -88.4272C-105.608 -88.1828 -105.895 -87.915 -106.164 -87.6249ZM-107.091 -90.2187C-107.46 -90.0481 -107.815 -89.8481 -108.154 -89.6201L-108.933 -90.5432C-108.581 -90.6282 -108.224 -90.6842 -107.865 -90.7113C-107.598 -90.5672 -107.339 -90.403 -107.091 -90.2187ZM-109.587 -91.3395C-109.599 -91.3359 -109.61 -91.3323 -109.622 -91.3287C-109.636 -91.3243 -109.65 -91.3199 -109.664 -91.3155L-109.679 -91.3292L-109.694 -91.343C-109.703 -91.3507 -109.712 -91.3583 -109.72 -91.3659C-109.691 -91.3605 -109.662 -91.3549 -109.633 -91.3491C-109.618 -91.3459 -109.602 -91.3427 -109.587 -91.3395ZM-275.592 68.7856C-276.152 69.8707 -276.404 71.1008 -276.301 72.352C-276.176 73.8609 -275.526 75.2905 -274.469 76.3879L-272.691 78.2296C-272.48 77.9456 -272.248 77.6746 -271.997 77.4188L-269.806 75.1821L-275.592 68.7856ZM-269.174 75.8807L-271.323 78.0747C-271.581 78.3387 -271.816 78.6209 -272.026 78.9181L-265.992 85.1674L-263.353 82.315L-269.174 75.8807ZM-262.72 83.0154L-265.337 85.8453L-259.451 91.9414L-257.086 89.2429L-262.72 83.0154ZM-256.452 89.9438L-258.797 92.6191L-253.104 98.5152L-250.992 95.9795L-256.452 89.9438ZM-250.356 96.6822L-252.448 99.194L-246.934 104.904L-245.058 102.539L-250.356 96.6822ZM-244.416 103.249L-246.273 105.589L-240.922 111.131L-239.265 108.943L-244.416 103.249ZM-238.621 109.655L-240.259 111.817L-235.059 117.203L-233.606 115.199L-238.621 109.655ZM-232.959 115.914L-234.394 117.892L-229.334 123.132L-228.071 121.317L-232.959 115.914ZM-227.423 122.033L-228.667 123.823L-223.736 128.93L-222.652 127.308L-227.423 122.033ZM-222.001 128.027L-223.067 129.622L-218.257 134.604L-217.341 133.179L-222.001 128.027ZM-142.305 214.719L-142.735 214.244L-141.677 215.276L-141.484 215.475L-142.305 214.719ZM-131.882 226.242L-135.413 222.339L-130.432 226.922L-129.14 228.26C-129.473 228.131 -129.798 227.974 -130.109 227.788L-131.882 226.242ZM-128.122 229.519C-128.044 229.533 -127.966 229.546 -127.887 229.557L-126.87 230.611L-128.122 229.519ZM-125.68 229.548L-117.069 237.938L-114.689 240.128C-112.644 240.52 -110.445 239.948 -108.834 238.401L53.4975 82.4719C54.9386 81.0869 55.669 79.1512 55.5045 77.1615L55.5086 77.1609C55.3841 75.652 54.7331 74.2183 53.6811 73.1245L-69.9646 -54.9229L-71.3477 -52.2916L40.6949 71.5639C41.7815 72.7664 42.4265 74.2511 42.5594 75.8595C42.7508 78.1599 41.8746 80.3655 40.1606 81.9108L-121.897 227.752C-122.996 228.741 -124.316 229.337 -125.68 229.548ZM-72.0238 -53.039L-70.6568 -55.6398L-72.5682 -57.6193L-73.9166 -55.1314L-72.0238 -53.039ZM-74.5859 -55.8713L-73.2537 -58.3292L-75.1426 -60.2853L-76.4556 -57.9381L-74.5859 -55.8713ZM-77.1223 -58.6751L-75.8257 -60.9927L-77.6892 -62.9226L-78.9663 -60.7135L-77.1223 -58.6751ZM-79.6332 -61.4508L-78.373 -63.6307L-80.2116 -65.5347L-81.4519 -63.4612L-79.6332 -61.4508ZM-82.1127 -64.1916L-80.8894 -66.2366L-82.7008 -68.1126L-83.9038 -66.1715L-82.1127 -64.1916ZM-84.5621 -66.8993L-83.3765 -68.8123L-85.1532 -70.6523L-86.3182 -68.8406L-84.5621 -66.8993ZM-86.9762 -69.5679L-85.829 -71.3521L-87.5757 -73.161L-88.7019 -71.4755L-86.9762 -69.5679ZM-89.354 -72.1964L-88.2459 -73.855L-89.9597 -75.6299L-91.0464 -74.0672L-89.354 -72.1964ZM-91.6928 -74.7818L-90.6244 -76.3182L-92.2983 -78.0517L-93.345 -76.6082L-91.6928 -74.7818ZM-93.9901 -77.3213L-92.9619 -78.739L-94.5939 -80.4291L-95.6001 -79.1011L-93.9901 -77.3213ZM-96.2422 -79.8108L-95.255 -81.1137L-96.839 -82.7541L-97.8042 -81.5376L-96.2422 -79.8108ZM-98.4476 -82.2488L-97.502 -83.4407L-99.0333 -85.0265L-99.957 -83.9173L-98.4476 -82.2488ZM-100.596 -84.6241L-99.7107 -85.6876L-99.6926 -85.7092L-101.055 -87.1204C-101.409 -86.8608 -101.744 -86.5659 -102.055 -86.2363L-100.596 -84.6241ZM-102.684 -86.9323C-102.379 -87.2508 -102.053 -87.5398 -101.711 -87.7992L-102.591 -88.7108C-102.63 -88.7517 -102.67 -88.7921 -102.711 -88.8318C-103.122 -88.6813 -103.517 -88.4928 -103.893 -88.2684L-102.684 -86.9323ZM-104.535 -88.9779C-104.212 -89.1813 -103.875 -89.361 -103.527 -89.5158C-103.771 -89.6887 -104.025 -89.8432 -104.285 -89.9793C-104.632 -89.9554 -104.974 -89.9061 -105.308 -89.8323L-104.535 -88.9779ZM-106.074 -90.6048L-106.073 -90.6053L-106.076 -90.6058L-106.074 -90.6048ZM-273.254 83.4216C-273.36 82.1389 -273.102 80.8715 -272.53 79.7518L-266.632 85.86L-269.052 88.4761C-269.278 88.7194 -269.486 88.9753 -269.678 89.2421L-271.214 87.7452C-272.395 86.5924 -273.117 85.0588 -273.254 83.4216ZM-268.36 89.1129L-265.978 86.5378L-260.074 92.6523L-262.885 95.8604L-268.994 89.9083C-268.803 89.6297 -268.591 89.3637 -268.36 89.1129ZM-262.212 96.5165L-259.42 93.3301L-253.71 99.2435L-256.265 102.311L-262.212 96.5165ZM-255.591 102.968L-253.055 99.9223L-247.525 105.649L-249.842 108.569L-255.591 102.968ZM-249.163 109.231L-246.864 106.334L-241.498 111.891L-243.594 114.657L-249.163 109.231ZM-242.913 115.32L-240.835 112.578L-235.621 117.978L-237.511 120.584L-242.913 115.32ZM-236.828 121.249L-234.956 118.667L-229.883 123.921L-231.58 126.363L-236.828 121.249ZM-230.897 127.029L-229.216 124.612L-224.272 129.733L-225.79 132.005L-230.897 127.029ZM-225.105 132.672L-223.603 130.425L-218.781 135.419L-220.131 137.518L-225.105 132.672ZM-219.443 138.189L-218.109 136.115L-213.399 140.993L-214.591 142.917L-219.443 138.189ZM-118.653 237.759L-118.569 237.847L-118.367 238.022L-118.653 237.759ZM-102.487 251.355L-113.546 241.18C-111.619 241.207 -109.681 240.507 -108.187 239.072L54.1446 83.148C55.791 81.5652 56.6291 79.3561 56.4408 77.0803C56.3021 75.3596 55.5578 73.7199 54.3525 72.4738L-69.5039 -55.7994L-68.2894 -58.11L67.3584 74.0571C68.5387 75.2059 69.2617 76.7436 69.3982 78.3808L69.4023 78.3802C69.5653 80.3576 68.8618 82.3067 67.4712 83.7272L-95.1385 249.74C-97.1039 251.749 -100.012 252.291 -102.487 251.355ZM-68.9963 -58.7988L-70.1961 -56.5163L-72.0983 -58.4863L-70.9155 -60.6687L-68.9963 -58.7988ZM-71.6159 -61.3512L-72.7838 -59.1963L-74.663 -61.1425L-73.5125 -63.1991L-71.6159 -61.3512ZM-74.2108 -63.8795L-75.3461 -61.85L-77.1996 -63.7695L-76.082 -65.7026L-74.2108 -63.8795ZM-76.7813 -66.384L-77.8833 -64.4777L-79.7114 -66.371L-78.6276 -68.1829L-76.7813 -66.384ZM-79.321 -68.8585L-80.3891 -67.0729L-82.1896 -68.9375L-81.1401 -70.631L-79.321 -68.8585ZM-81.8318 -71.3049L-82.8653 -69.6373L-84.6304 -71.4654L-83.6158 -73.0432L-81.8318 -71.3049ZM-84.308 -73.7176L-85.3061 -72.1652L-87.0407 -73.9616L-86.0619 -75.4265L-84.308 -73.7176ZM-86.7488 -76.0957L-87.7109 -74.6557L-89.412 -76.4175L-88.4696 -77.7724L-86.7488 -76.0957ZM-89.1512 -78.4365L-90.0766 -77.1058L-91.7371 -78.8255L-90.8317 -80.0739L-89.1512 -78.4365ZM-91.5127 -80.7374L-92.4007 -79.5128L-94.0186 -81.1884L-93.1509 -82.3335L-91.5127 -80.7374ZM-93.8296 -82.9948L-94.6796 -81.873L-96.2488 -83.4981L-95.7403 -84.1389C-95.6328 -84.2745 -95.5218 -84.4056 -95.4073 -84.5321L-93.8296 -82.9948ZM-96.4846 -84.7231L-96.9117 -84.1847L-98.3939 -85.7197C-98.0928 -86.0086 -97.7706 -86.2703 -97.4304 -86.5033L-96.0849 -85.1923C-96.2225 -85.0417 -96.3559 -84.8853 -96.4846 -84.7231ZM-98.1164 -87.1717C-98.4433 -86.9373 -98.7546 -86.6788 -99.0483 -86.3974L-100.244 -87.6363C-99.8788 -87.8364 -99.4989 -88.0036 -99.1094 -88.1375C-99.0787 -88.1087 -99.0481 -88.0795 -99.0178 -88.05L-98.1164 -87.1717ZM-99.9543 -88.8154C-100.283 -88.6759 -100.604 -88.5146 -100.916 -88.3315L-101.68 -89.1229C-101.357 -89.1884 -101.027 -89.2318 -100.692 -89.2525C-100.438 -89.1229 -100.192 -88.977 -99.9543 -88.8154ZM-269.487 90.7453C-270.063 91.8957 -270.322 93.1945 -270.215 94.4963C-270.07 96.2664 -269.268 97.903 -267.958 99.1107L-266.688 100.28C-266.508 100.02 -266.312 99.7696 -266.1 99.5284L-263.508 96.5709L-269.487 90.7453ZM-262.835 97.2271L-265.393 100.147C-265.61 100.394 -265.809 100.654 -265.989 100.923L-259.828 106.591L-256.87 103.038L-262.835 97.2271ZM-256.196 103.695L-259.137 107.226L-253.148 112.737L-250.431 109.312L-256.196 103.695ZM-249.752 109.974L-252.452 113.377L-246.661 118.705L-244.168 115.415L-249.752 109.974ZM-243.487 116.078L-245.964 119.347L-240.356 124.507L-238.071 121.355L-243.487 116.078ZM-237.388 122.021L-239.657 125.15L-234.217 130.155L-232.126 127.148L-237.388 122.021ZM-231.443 127.813L-233.518 130.798L-228.233 135.661L-226.323 132.802L-231.443 127.813ZM-225.638 133.469L-227.532 136.305L-222.392 141.035L-220.652 138.328L-225.638 133.469ZM-219.963 138.999L-221.688 141.682L-216.681 146.289L-215.1 143.737L-219.963 138.999ZM-214.408 144.411L-215.975 146.939L-211.094 151.43L-209.661 149.036L-214.408 144.411ZM-208.965 149.714L-210.382 152.084L-205.616 156.47L-204.325 154.236L-208.965 149.714ZM-101.054 252.673C-98.7037 252.977 -96.243 252.216 -94.4642 250.4L68.1492 84.3825C69.729 82.7705 70.5285 80.5537 70.3433 78.3027C70.1909 76.4413 69.3661 74.6946 68.023 73.3864L-67.8313 -58.9813L-66.7668 -61.0066L81.0444 74.9928C82.3533 76.1964 83.1562 77.837 83.3012 79.6072L83.3018 79.6113C83.4678 81.5799 82.7911 83.5423 81.4465 84.9947L-81.4419 261.092C-83.9259 263.776 -88.0281 264.105 -90.8993 261.965L-91.9613 261.039L-101.054 252.673ZM-68.5383 -59.6701L-67.4874 -61.6696L-69.4129 -63.4412L-70.4482 -61.531L-68.5383 -59.6701ZM-71.1486 -62.2134L-70.1271 -64.0983L-72.0299 -65.8491L-73.0354 -64.0518L-71.1486 -62.2134ZM-73.7337 -64.7322L-72.7422 -66.5045L-74.6197 -68.232L-75.5947 -66.5454L-73.7337 -64.7322ZM-76.294 -67.2268L-75.3334 -68.8886L-77.1859 -70.5931L-78.1297 -69.0153L-76.294 -67.2268ZM-78.8231 -69.6909L-77.8938 -71.2444L-79.7191 -72.9239L-80.631 -71.4525L-78.8231 -69.6909ZM-81.3227 -72.1264L-80.4256 -73.5739L-82.2156 -75.2208L-83.095 -73.8532L-81.3227 -72.1264ZM-83.7871 -74.5276L-82.9229 -75.8717L-84.6827 -77.4908L-85.5288 -76.2245L-83.7871 -74.5276ZM-86.2156 -76.8937L-85.3849 -78.1369L-87.1114 -79.7254L-87.9235 -78.5578L-86.2156 -76.8937ZM-88.605 -79.2218L-87.8086 -80.3669L-89.4944 -81.918L-90.2719 -80.8459L-88.605 -79.2218ZM-90.9528 -81.5094L-90.1914 -82.5593L-91.7791 -84.0201C-92.0357 -83.763 -92.2779 -83.4856 -92.5032 -83.1883L-92.5766 -83.0915L-90.9528 -81.5094ZM-93.2553 -83.7528L-93.2537 -83.7549C-93.0098 -84.0767 -92.7483 -84.3776 -92.4716 -84.6573L-93.8046 -85.8837C-94.1279 -85.6786 -94.4385 -85.4481 -94.7331 -85.1926L-93.2553 -83.7528ZM-95.4116 -85.8538C-95.1273 -86.1044 -94.8295 -86.334 -94.5204 -86.5423L-95.4453 -87.3934C-95.4532 -87.4006 -95.461 -87.4078 -95.4689 -87.415C-95.4814 -87.4264 -95.4939 -87.4377 -95.5064 -87.449C-95.8797 -87.328 -96.2417 -87.1784 -96.5897 -87.0016L-95.4116 -85.8538ZM-97.2972 -87.6909C-97.0034 -87.8542 -96.6999 -87.9999 -96.3881 -88.1273C-96.6152 -88.2752 -96.8497 -88.4093 -97.0905 -88.5293C-97.4098 -88.5125 -97.7279 -88.4751 -98.0426 -88.4172L-97.2972 -87.6909ZM-267.181 105.567C-267.291 104.23 -267.042 102.925 -266.468 101.756L-260.429 107.312L-263.155 110.586C-263.355 110.826 -263.541 111.075 -263.712 111.332L-264.699 110.472C-266.14 109.214 -267.023 107.47 -267.181 105.567ZM-262.43 111.181L-259.738 107.948L-253.733 113.474L-256.808 117.35L-262.997 111.955C-262.826 111.687 -262.637 111.429 -262.43 111.181ZM-256.096 117.97L-253.037 114.114L-247.231 119.457L-250.079 123.215L-256.096 117.97ZM-249.366 123.836L-246.533 120.098L-240.911 125.272L-243.548 128.908L-249.366 123.836ZM-242.834 129.53L-240.212 125.915L-234.758 130.932L-237.199 134.442L-242.834 129.53ZM-236.485 135.064L-234.059 131.575L-228.76 136.451L-231.018 139.83L-236.485 135.064ZM-230.303 140.452L-228.06 137.095L-222.907 141.836L-224.994 145.081L-230.303 140.452ZM-224.276 145.706L-222.204 142.483L-217.185 147.102L-219.11 150.209L-224.276 145.706ZM-218.391 150.836L-216.479 147.751L-211.586 152.253L-213.361 155.22L-218.391 150.836ZM-212.636 155.852L-210.875 152.907L-206.098 157.303L-207.731 160.128L-212.636 155.852ZM-207.007 160.759L-205.386 157.957L-200.717 162.253L-202.217 164.934L-207.007 160.759ZM-201.492 165.566L-200.005 162.908L-195.436 167.112L-196.81 169.647L-201.492 165.566ZM-78.0924 273.128L-88.4455 264.104C-85.7313 264.716 -82.7695 263.908 -80.75 261.724L82.1384 85.6274C83.6594 83.9809 84.4284 81.7554 84.2417 79.5256C84.0757 77.5235 83.1655 75.6661 81.6812 74.3004L-66.3139 -61.8682L-65.3818 -63.6415L94.7295 75.9203C96.175 77.1778 97.0534 78.9178 97.2116 80.8245L97.2157 80.824C97.3843 82.8132 96.7452 84.7415 95.428 86.2449L-67.7385 272.43C-70.4062 275.47 -75.0454 275.783 -78.0924 273.128ZM-66.1149 -64.2806L-67.0345 -62.5311L-68.9506 -64.2942L-68.0458 -65.9636L-66.1149 -64.2806ZM-68.7727 -66.5973L-69.6648 -64.9513L-71.5578 -66.693L-70.6809 -68.2605L-68.7727 -66.5973ZM-71.4062 -68.8927L-72.2701 -67.3484L-74.1373 -69.0664L-73.2889 -70.5338L-71.4062 -68.8927ZM-74.0159 -71.1675L-74.851 -69.723L-76.6927 -71.4176L-75.8737 -72.7869L-74.0159 -71.1675ZM-76.595 -73.4156L-77.4006 -72.0689L-79.2146 -73.738L-78.4255 -75.0112L-76.595 -73.4156ZM-79.1458 -75.639L-79.9211 -74.388L-81.6992 -76.0239L-80.9407 -77.2035L-79.1458 -75.639ZM-81.6622 -77.8324L-82.4065 -76.6748L-84.1538 -78.2824L-83.4267 -79.3705L-81.6622 -77.8324ZM-84.1434 -79.9952L-84.856 -78.9285L-86.5693 -80.5049L-86.025 -81.2877C-85.9747 -81.3599 -85.9236 -81.4311 -85.8714 -81.5014L-84.1434 -79.9952ZM-86.7965 -81.8223L-87.2665 -81.1464L-88.925 -82.6724C-88.6837 -82.9631 -88.4249 -83.2354 -88.1504 -83.4879L-86.5811 -82.1201C-86.6546 -82.0225 -86.7264 -81.9232 -86.7965 -81.8223ZM-88.8642 -84.1101C-89.1296 -83.86 -89.3815 -83.5931 -89.6183 -83.3103L-91.073 -84.6487C-90.7883 -84.8736 -90.4908 -85.0773 -90.1827 -85.2594L-88.8642 -84.1101ZM-90.9255 -85.9068C-91.2178 -85.72 -91.5009 -85.5152 -91.773 -85.2927L-92.934 -86.361C-92.5988 -86.518 -92.2538 -86.6504 -91.9022 -86.7581C-91.8937 -86.7508 -91.8853 -86.7435 -91.8769 -86.7361L-90.9255 -85.9068ZM-92.8197 -87.434C-93.1112 -87.3199 -93.3973 -87.1899 -93.6767 -87.0443L-94.4075 -87.7167C-94.2219 -87.7476 -94.0343 -87.7717 -93.8451 -87.7891C-93.7323 -87.7994 -93.6197 -87.8072 -93.5073 -87.8126C-93.2732 -87.6997 -93.0436 -87.5735 -92.8197 -87.434ZM-263.464 112.797C-264.025 113.983 -264.266 115.298 -264.155 116.64C-263.984 118.679 -263.025 120.526 -261.443 121.833L-260.753 122.404C-260.586 122.14 -260.404 121.883 -260.208 121.634L-257.394 118.088L-263.464 112.797ZM-256.682 118.709L-259.467 122.219C-259.669 122.473 -259.854 122.738 -260.021 123.011L-253.817 128.149L-250.649 123.968L-256.682 118.709ZM-249.936 124.589L-253.09 128.751L-247.058 133.748L-244.103 129.674L-249.936 124.589ZM-243.389 130.296L-246.329 134.351L-240.496 139.183L-237.74 135.22L-243.389 130.296ZM-237.026 135.842L-239.768 139.785L-234.116 144.467L-231.546 140.619L-237.026 135.842ZM-230.831 141.242L-233.388 145.069L-227.906 149.61L-225.509 145.882L-230.831 141.242ZM-224.791 146.507L-227.175 150.215L-221.848 154.627L-219.613 151.02L-224.791 146.507ZM-218.893 151.648L-221.116 155.234L-215.936 159.524L-213.852 156.042L-218.893 151.648ZM-213.128 156.674L-215.198 160.135L-210.152 164.315L-208.211 160.959L-213.128 156.674ZM-207.487 161.59L-209.415 164.925L-204.493 169.002L-202.687 165.774L-207.487 161.59ZM-201.962 166.406L-203.755 169.613L-198.949 173.594L-197.27 170.496L-201.962 166.406ZM-196.543 171.13L-198.21 174.205L-193.514 178.095L-191.955 175.129L-196.543 171.13ZM-76.0288 275.401L-64.7239 284.764C-61.5084 287.427 -56.7184 286.982 -54.0427 283.774L109.402 87.5001C110.678 85.9685 111.291 84.0309 111.127 82.0453L111.123 82.05C110.952 80.0067 109.993 78.1638 108.411 76.8524L-64.1188 -66.0443L-64.9313 -64.4986L95.3518 75.213C96.9769 76.632 97.9759 78.5955 98.1526 80.747C98.3371 82.9939 97.6202 85.1666 96.1348 86.8631L-67.0312 273.052C-69.3254 275.669 -72.9247 276.492 -76.0288 275.401ZM-65.6644 -65.1377L-64.8636 -66.6612L-66.799 -68.2642L-67.5858 -66.8124L-65.6644 -65.1377ZM-68.3127 -67.446L-67.5377 -68.876L-69.4504 -70.4601L-70.2109 -69.1006L-68.3127 -67.446ZM-70.9362 -69.7328L-70.1877 -71.0708L-72.0748 -72.6338L-72.8085 -71.3648L-70.9362 -69.7328ZM-73.5355 -71.9985L-72.8142 -73.2462L-74.6763 -74.7885L-75.3823 -73.6083L-73.5355 -71.9985ZM-76.1037 -74.2371L-75.4102 -75.3963L-77.2451 -76.9161L-77.9227 -75.8226L-76.1037 -74.2371ZM-78.6429 -76.4504L-77.9781 -77.5232L-79.777 -79.0132L-80.4257 -78.0044L-78.6429 -76.4504ZM-81.1472 -78.6333L-80.5117 -79.6216L-82.2458 -81.0579C-82.4358 -80.8271 -82.6152 -80.5855 -82.7833 -80.3335L-82.899 -80.1603L-81.1472 -78.6333ZM-83.6157 -80.785L-83.5698 -80.8536C-83.3825 -81.1336 -83.1826 -81.4021 -82.971 -81.6585L-84.5231 -82.944C-84.7852 -82.7213 -85.0347 -82.4821 -85.2703 -82.2272L-83.6157 -80.785ZM-85.9787 -82.8447C-85.7498 -83.094 -85.5089 -83.3299 -85.257 -83.5519L-86.5635 -84.634C-86.8567 -84.4711 -87.1398 -84.2907 -87.4112 -84.0934L-85.9787 -82.8447ZM-88.1379 -84.7268C-87.8804 -84.9235 -87.613 -85.1062 -87.3366 -85.2743L-88.2991 -86.0715C-88.6317 -85.9756 -88.9587 -85.8585 -89.2778 -85.7204L-88.1379 -84.7268ZM-90.0546 -86.3974C-89.7914 -86.527 -89.5226 -86.6434 -89.2495 -86.7464C-89.4634 -86.8748 -89.6826 -86.9922 -89.9066 -87.0982C-90.1939 -87.0865 -90.4804 -87.0592 -90.7646 -87.0163L-90.0546 -86.3974ZM-261.133 127.712C-261.243 126.379 -261.012 125.06 -260.471 123.863L-254.388 128.902L-257.259 132.691C-257.456 132.951 -257.638 133.22 -257.804 133.497L-258.183 133.198C-259.878 131.859 -260.953 129.859 -261.133 127.712ZM-256.504 133.257L-253.661 129.504L-247.613 134.514L-250.853 138.982L-257.057 134.087C-256.891 133.801 -256.706 133.524 -256.504 133.257ZM-250.112 139.567L-246.885 135.117L-241.037 139.96L-244.076 144.33L-250.112 139.567ZM-243.336 144.914L-240.309 140.563L-234.643 145.256L-237.495 149.523L-243.336 144.914ZM-236.755 150.107L-233.916 145.859L-228.42 150.41L-231.097 154.572L-236.755 150.107ZM-230.354 155.158L-227.69 151.015L-222.351 155.437L-224.863 159.491L-230.354 155.158ZM-224.118 160.079L-221.618 156.044L-216.426 160.345L-218.785 164.287L-224.118 160.079ZM-218.036 164.878L-215.689 160.955L-210.631 165.144L-212.845 168.974L-218.036 164.878ZM-212.097 169.564L-209.894 165.754L-204.962 169.84L-207.04 173.555L-212.097 169.564ZM-206.291 174.146L-204.224 170.451L-199.408 174.44L-201.358 178.039L-206.291 174.146ZM-200.608 178.63L-198.669 175.052L-193.963 178.95L-195.793 182.43L-200.608 178.63ZM-195.039 183.025L-193.22 179.565L-68.2459 283.076L-195.039 183.025ZM-51.355 296.405L-64.1284 286.326C-60.6022 288.347 -56.006 287.607 -53.3205 284.381L110.124 88.108C111.56 86.3843 112.247 84.207 112.064 81.9725C111.873 79.6761 110.793 77.6015 109.015 76.1308L-63.6702 -66.8977L-62.9621 -68.2448L122.096 77.7799C123.79 79.1189 124.865 81.1146 125.041 83.2662L125.045 83.2656C125.209 85.2471 124.619 87.1986 123.38 88.759L-40.343 295.116C-43.0256 298.502 -47.9664 299.079 -51.355 296.405ZM-63.7178 -68.8411L-64.415 -67.5146L-66.3408 -69.1097L-65.657 -70.3713L-63.7178 -68.8411ZM-66.4067 -70.9629L-67.0795 -69.7215L-68.982 -71.2973L-68.3231 -72.4751L-66.4067 -70.9629ZM-69.0717 -73.0657L-69.7193 -71.908L-71.5959 -73.4623L-70.9625 -74.5578L-69.0717 -73.0657ZM-71.7134 -75.1503L-72.3352 -74.0746L-74.1863 -75.6078L-73.5793 -76.6226L-71.7134 -75.1503ZM-74.3248 -77.2109L-74.9201 -76.2156L-76.7433 -77.7257L-76.305 -78.4329C-76.2577 -78.5093 -76.2094 -78.5847 -76.1603 -78.6592L-74.3248 -77.2109ZM-77.1089 -78.9257L-77.4764 -78.3328L-79.2521 -79.8037C-79.0521 -80.0803 -78.8384 -80.3439 -78.6121 -80.5938L-76.9029 -79.2452C-76.9733 -79.1404 -77.0419 -79.0339 -77.1089 -78.9257ZM-79.3561 -81.181C-79.5763 -80.9352 -79.7853 -80.6776 -79.9826 -80.4087L-81.6075 -81.7545C-81.3782 -81.9794 -81.1375 -82.1909 -80.8864 -82.3885L-79.3561 -81.181ZM-81.6435 -82.9859C-81.8835 -82.7881 -82.1144 -82.5785 -82.3356 -82.3576L-83.7497 -83.5288C-83.489 -83.7035 -83.2188 -83.8638 -82.94 -84.0089L-81.6435 -82.9859ZM-83.7415 -84.6413C-84.0026 -84.4903 -84.2563 -84.327 -84.5017 -84.1517L-85.6237 -85.081C-85.3214 -85.2022 -85.0108 -85.3062 -84.6931 -85.3922L-83.7415 -84.6413ZM-85.6823 -86.0664C-85.9393 -85.9735 -86.1912 -85.8696 -86.4375 -85.755L-87.1187 -86.3193C-86.8483 -86.3555 -86.5761 -86.3782 -86.3031 -86.3873C-86.0929 -86.2903 -85.8857 -86.1834 -85.6823 -86.0664ZM-257.49 134.95C-258.005 136.15 -258.224 137.465 -258.115 138.786C-257.925 141.078 -256.766 143.18 -254.927 144.564L-254.865 144.611C-254.696 144.313 -254.509 144.023 -254.307 143.744L-251.409 139.748L-257.49 134.95ZM-250.668 140.333L-253.541 144.296C-253.748 144.581 -253.936 144.878 -254.104 145.184L-247.914 149.849L-244.617 145.108L-250.668 140.333ZM-243.877 145.692L-247.161 150.416L-241.129 154.962L-238.022 150.312L-243.877 145.692ZM-237.281 150.896L-240.377 155.528L-234.54 159.927L-231.61 155.371L-237.281 150.896ZM-230.868 155.957L-233.786 160.495L-228.127 164.759L-225.364 160.3L-230.868 155.957ZM-224.619 160.887L-227.372 165.328L-221.882 169.465L-219.274 165.105L-224.619 160.887ZM-218.525 165.696L-221.122 170.038L-215.785 174.06L-213.323 169.801L-218.525 165.696ZM-212.575 170.391L-215.026 174.631L-209.832 178.546L-207.507 174.39L-212.575 170.391ZM-206.758 174.981L-209.073 179.118L-204.01 182.933L-201.815 178.881L-206.758 174.981ZM-201.065 179.473L-203.25 183.505L-198.313 187.226L-196.24 183.28L-201.065 179.473ZM-195.486 183.875L-197.549 187.801L-37.9866 308.041C-34.4253 310.723 -29.3379 310.014 -26.6468 306.464L137.354 90.0184C138.556 88.4333 139.128 86.4675 138.965 84.486L138.961 84.4906C138.771 82.2026 137.612 80.0962 135.777 78.7121L-61.906 -70.254L-62.5185 -69.0888L122.682 77.0479C124.581 78.5453 125.782 80.7846 125.983 83.1928C126.168 85.4144 125.504 87.6015 124.117 89.3483L-39.6064 295.706C-42.6109 299.492 -48.1463 300.136 -51.9402 297.141L-195.486 183.875ZM-63.2742 -69.6851L-62.6718 -70.8311L-64.6145 -72.2949L-65.2037 -71.2077L-63.2742 -69.6851ZM-65.9534 -71.7992L-65.3744 -72.8676L-67.2942 -74.3143L-67.8597 -73.3035L-65.9534 -71.7992ZM-68.6083 -73.8941L-68.0532 -74.8862L-69.9474 -76.3136L-70.4885 -75.3778L-68.6083 -73.8941ZM-71.2393 -75.9702L-70.709 -76.8876L-72.5413 -78.2683C-72.7281 -78.0151 -72.9037 -77.7516 -73.0675 -77.4782L-73.0941 -77.4338L-71.2393 -75.9702ZM-73.8394 -78.0219C-73.6688 -78.3027 -73.4867 -78.574 -73.2937 -78.8352L-74.9833 -80.1084C-75.2005 -79.8896 -75.4083 -79.6586 -75.6058 -79.4157L-73.8394 -78.0219ZM-76.3459 -79.9997C-76.1535 -80.237 -75.952 -80.464 -75.7423 -80.6804L-77.2538 -81.8195C-77.4923 -81.6445 -77.7222 -81.4578 -77.9429 -81.2599L-76.3459 -79.9997ZM-78.6949 -81.8532C-78.4837 -82.0486 -78.2646 -82.2345 -78.0381 -82.4104L-79.317 -83.3741C-79.5802 -83.2453 -79.8363 -83.1036 -80.0845 -82.9498L-78.6949 -81.8532ZM-80.8644 -83.5652C-80.6322 -83.7204 -80.3933 -83.8657 -80.1482 -84.0006L-81.0946 -84.7137C-81.3933 -84.6372 -81.6861 -84.5455 -81.9719 -84.439L-80.8644 -83.5652ZM-82.8207 -85.1088C-82.5913 -85.21 -82.3573 -85.3023 -82.1192 -85.3855C-82.3161 -85.4944 -82.5163 -85.5943 -82.7191 -85.6853C-82.9718 -85.6778 -83.2253 -85.6588 -83.479 -85.6283L-82.8207 -85.1088ZM-255.101 149.864C-255.209 148.557 -255.005 147.252 -254.518 146.053L-248.453 150.624L-251.354 154.796C-251.565 155.099 -251.758 155.414 -251.931 155.738C-253.758 154.307 -254.906 152.184 -255.101 149.864ZM-250.582 155.334L-247.7 151.191L-241.653 155.747L-244.995 160.748L-251.163 156.3C-250.991 155.967 -250.798 155.644 -250.582 155.334ZM-244.232 161.298L-240.901 156.314L-235.051 160.722L-238.213 165.639L-244.232 161.298ZM-237.448 166.191L-234.297 161.29L-228.626 165.564L-231.62 170.394L-237.448 166.191ZM-230.853 170.946L-227.87 166.133L-222.369 170.279L-225.205 175.02L-230.853 170.946ZM-224.434 175.576L-221.609 170.852L-216.26 174.882L-218.949 179.532L-224.434 175.576ZM-218.18 180.086L-215.502 175.454L-210.296 179.376L-212.846 183.933L-218.18 180.086ZM-212.077 184.487L-209.537 179.948L-204.464 183.771L-206.883 188.233L-212.077 184.487ZM-206.114 188.788L-203.705 184.343L-198.758 188.071L-201.053 192.438L-206.114 188.788ZM-200.279 192.996L-197.994 188.647L-38.5486 308.795C-34.5743 311.793 -28.8943 311.001 -25.8917 307.034L138.11 90.5886C139.451 88.8182 140.09 86.6219 139.906 84.4126C139.695 81.855 138.396 79.5066 136.348 77.9611L-61.4626 -71.0976L-60.9379 -72.0958L149.462 79.6396C151.441 81.0682 152.689 83.2806 152.892 85.7094C153.056 87.6909 152.502 89.667 151.333 91.2772L-12.9464 317.811C-15.6449 321.534 -20.883 322.375 -24.6135 319.681L-200.279 192.996ZM-61.7132 -72.6549L-62.2284 -71.6747L-64.1612 -73.1311L-63.6589 -74.0581L-61.7132 -72.6549ZM-64.4284 -74.613L-64.9212 -73.7038L-66.8308 -75.1427L-66.5924 -75.5689C-66.5117 -75.7129 -66.4281 -75.8542 -66.3416 -75.9928L-64.4284 -74.613ZM-67.4132 -76.0302L-67.5898 -75.7147L-69.4538 -77.1193C-69.284 -77.3713 -69.1037 -77.6142 -68.9136 -77.8476L-67.1071 -76.5448C-67.2131 -76.377 -67.3152 -76.2054 -67.4132 -76.0302ZM-69.6816 -78.4014C-69.8665 -78.1722 -70.0429 -77.9347 -70.2102 -77.6893L-71.9467 -78.9978C-71.7566 -79.2095 -71.5576 -79.412 -71.3506 -79.6051L-69.6816 -78.4014ZM-72.1282 -80.1659C-72.3267 -79.9742 -72.518 -79.7744 -72.7018 -79.5668L-74.275 -80.7523C-74.0633 -80.9257 -73.845 -81.0891 -73.6208 -81.2423L-72.1282 -80.1659ZM-74.4279 -81.8244C-74.6397 -81.6695 -74.8463 -81.506 -75.0471 -81.3341L-76.4159 -82.3655C-76.1818 -82.5002 -75.9414 -82.6245 -75.6951 -82.7383L-74.4279 -81.8244ZM-76.5606 -83.3624C-76.7883 -83.2426 -77.011 -83.1143 -77.2282 -82.9776L-78.3098 -83.7927C-78.0421 -83.8852 -77.7688 -83.9654 -77.4904 -84.033L-76.5606 -83.3624ZM-78.5467 -84.7036C-78.7663 -84.6297 -78.9825 -84.5483 -79.1951 -84.4598L-79.8331 -84.9405C-79.5973 -84.9655 -79.3618 -84.9808 -79.127 -84.9865C-78.9306 -84.9 -78.737 -84.8056 -78.5467 -84.7036ZM-251.555 157.177C-252.009 158.369 -252.197 159.656 -252.091 160.938C-251.898 163.268 -250.78 165.389 -248.996 166.86C-248.819 166.514 -248.621 166.177 -248.402 165.848L-245.517 161.531L-251.555 157.177ZM-244.755 162.081L-247.62 166.369C-247.848 166.711 -248.051 167.065 -248.228 167.428L-242.092 171.672L-238.722 166.431L-244.755 162.081ZM-237.957 166.983L-241.317 172.208L-235.316 176.358L-232.116 171.195L-237.957 166.983ZM-231.35 171.748L-234.54 176.895L-228.73 180.913L-225.689 175.83L-231.35 171.748ZM-224.919 176.386L-227.949 181.452L-222.313 185.351L-219.422 180.35L-224.919 176.386ZM-218.653 180.905L-221.535 185.889L-216.059 189.676L-213.308 184.759L-218.653 180.905ZM-212.539 185.314L-215.281 190.214L-209.953 193.898L-207.335 189.067L-212.539 185.314ZM-206.565 189.622L-209.175 194.437L-203.989 198.023L-201.495 193.279L-206.565 189.622ZM-200.721 193.837L-203.207 198.564L-11.2446 331.322C-9.35319 332.627 -7.06586 333.125 -4.79724 332.715C-2.53275 332.306 -0.561069 331.043 0.753325 329.154L165.311 92.5361C166.448 90.9006 166.987 88.9096 166.82 86.9327L166.824 86.9281C166.61 84.354 165.269 82.0361 163.147 80.567L-60.0477 -73.7876C-60.0699 -73.7466 -60.0919 -73.7055 -60.1136 -73.6641L-60.4959 -72.9368L150.015 78.8783C152.219 80.4668 153.607 82.9253 153.833 85.6319C154.016 87.8329 153.399 90.0348 152.098 91.8294L-12.1816 318.359C-15.1869 322.502 -21.012 323.438 -25.1661 320.443L-200.721 193.837ZM-61.2711 -73.4959L-60.9524 -74.1022C-60.9125 -74.1783 -60.8718 -74.2539 -60.8303 -74.3289L-62.7257 -75.6396C-62.8944 -75.3975 -63.0538 -75.1473 -63.2033 -74.8893L-61.2711 -73.4959ZM-63.9701 -75.4423C-63.8218 -75.6934 -63.6649 -75.9377 -63.4997 -76.1749L-65.28 -77.4061C-65.4633 -77.2017 -65.6393 -76.9887 -65.8074 -76.7673L-63.9701 -75.4423ZM-66.572 -77.3187C-66.4084 -77.5352 -66.2379 -77.7444 -66.061 -77.9462L-67.7107 -79.0871C-67.9079 -78.9166 -68.0985 -78.7381 -68.2821 -78.552L-66.572 -77.3187ZM-69.0567 -79.1107C-68.8807 -79.2938 -68.6985 -79.4704 -68.5106 -79.6403L-69.9892 -80.6629C-70.2014 -80.5266 -70.4081 -80.3822 -70.6087 -80.2299L-69.0567 -79.1107ZM-71.4042 -80.8036C-71.2151 -80.9553 -71.0209 -81.1004 -70.8219 -81.2387L-72.0682 -82.1006C-72.2984 -82.0003 -72.5249 -81.8907 -72.747 -81.772L-71.4042 -80.8036ZM-73.5875 -82.3782C-73.3829 -82.4992 -73.1745 -82.6129 -72.9627 -82.7193L-73.8827 -83.3555C-74.1432 -83.2958 -74.3993 -83.2256 -74.6507 -83.1449L-73.5875 -82.3782ZM-75.5782 -83.8138C-75.3817 -83.8916 -75.1823 -83.9635 -74.98 -84.0293C-75.1591 -84.1222 -75.3409 -84.2084 -75.5249 -84.2881C-75.7445 -84.284 -75.9646 -84.2718 -76.1849 -84.2513L-75.5782 -83.8138ZM-249.082 172.012C-249.188 170.736 -249.022 169.484 -248.6 168.308L-242.598 172.459L-245.454 176.901C-245.678 177.251 -245.879 177.611 -246.057 177.978C-247.802 176.471 -248.889 174.351 -249.082 172.012ZM-244.661 177.407L-241.823 172.995L-235.809 177.155L-239.198 182.622L-245.155 178.664C-245.202 178.633 -245.249 178.601 -245.295 178.569C-245.113 178.171 -244.902 177.783 -244.661 177.407ZM-238.412 183.144L-235.033 177.691L-229.211 181.718L-232.438 187.113L-238.412 183.144ZM-231.649 187.637L-228.431 182.257L-222.783 186.164L-225.859 191.485L-231.649 187.637ZM-225.072 192.007L-222.005 186.702L-216.518 190.497L-219.452 195.742L-225.072 192.007ZM-218.665 196.264L-215.74 191.035L-210.402 194.726L-213.203 199.894L-218.665 196.264ZM-212.416 200.417L-209.624 195.265L-204.428 198.858L-207.103 203.947L-212.416 200.417ZM-206.312 204.472L-203.646 199.399L-11.7833 332.094C-9.68495 333.545 -7.14394 334.094 -4.62956 333.641C-2.11158 333.183 0.0727283 331.779 1.52901 329.688L166.087 93.0702C167.348 91.2556 167.943 89.048 167.761 86.8511C167.524 83.9951 166.037 81.4234 163.682 79.7955L-59.5623 -74.5995C-59.4147 -74.8236 -59.2595 -75.0414 -59.097 -75.2525L176.829 81.4992C179.098 83.0082 180.532 85.4316 180.756 88.151L180.752 88.1557C180.923 90.1614 180.413 92.1152 179.289 93.795L14.4536 340.501C13.1326 342.47 11.1292 343.813 8.80037 344.277C6.47156 344.74 4.10025 344.274 2.12428 342.962L-206.312 204.472ZM-59.8868 -75.7773C-60.0447 -75.5699 -60.196 -75.3567 -60.3407 -75.1378L-62.1513 -76.3901C-61.9901 -76.5823 -61.8223 -76.7682 -61.6484 -76.9476L-59.8868 -75.7773ZM-62.4442 -77.4764C-62.6111 -77.299 -62.7725 -77.1159 -62.9283 -76.9275L-64.6075 -78.0888C-64.4322 -78.2508 -64.2518 -78.4061 -64.0667 -78.5544L-62.4442 -77.4764ZM-64.8876 -79.0998C-65.0628 -78.9514 -65.2338 -78.7972 -65.4005 -78.6372L-66.931 -79.6957C-66.7428 -79.828 -66.5497 -79.9539 -66.3523 -80.073L-64.8876 -79.0998ZM-67.213 -80.6449C-67.3971 -80.5235 -67.5773 -80.3967 -67.7534 -80.2645L-69.0774 -81.1802C-68.8718 -81.2825 -68.662 -81.3777 -68.4483 -81.4656L-67.213 -80.6449ZM-69.3752 -82.0815C-69.5701 -81.9878 -69.7616 -81.8884 -69.9496 -81.7834L-70.9822 -82.4975C-70.7488 -82.567 -70.5128 -82.6276 -70.2747 -82.6791L-69.3752 -82.0815ZM-71.404 -83.3506C-71.5862 -83.2934 -71.7669 -83.2311 -71.9458 -83.164L-72.5235 -83.5635C-72.3231 -83.5791 -72.1227 -83.5882 -71.9228 -83.5907C-71.7478 -83.5165 -71.5749 -83.4364 -71.404 -83.3506ZM-245.649 179.464C-246.036 180.619 -246.184 181.842 -246.081 183.083C-245.886 185.43 -244.825 187.554 -243.117 189.095C-242.937 188.705 -242.732 188.324 -242.501 187.953L-239.693 183.421L-245.649 179.464ZM-238.908 183.943L-241.701 188.45C-241.953 188.857 -242.172 189.278 -242.358 189.71C-242.207 189.819 -242.053 189.924 -241.895 190.025L-236.315 193.593L-232.922 187.921L-238.908 183.943ZM-232.132 188.445L-235.517 194.103L-229.57 197.905L-226.33 192.3L-232.132 188.445ZM-225.543 192.823L-228.775 198.413L-223.009 202.1L-219.912 196.564L-225.543 192.823ZM-219.126 197.087L-222.214 202.608L-216.614 206.189L-213.653 200.724L-219.126 197.087ZM-212.866 201.246L-215.82 206.697L-210.377 210.177L-207.542 204.783L-212.866 201.246ZM-206.752 205.309L-209.579 210.687L15.501 354.597C19.7542 357.317 25.4276 356.077 28.1566 351.835L193.271 95.045C194.366 93.3436 194.858 91.3795 194.691 89.365L194.691 89.3692C194.453 86.5049 192.93 83.9755 190.51 82.4271L-58.0054 -76.4672C-58.1726 -76.3075 -58.3348 -76.1422 -58.4917 -75.9716L177.341 80.7179C179.857 82.3883 181.437 85.0696 181.688 88.0746C181.87 90.2967 181.314 92.4532 180.072 94.3157L15.2313 341.018C13.7783 343.201 11.554 344.685 8.98037 345.2C6.40631 345.711 3.78191 345.198 1.5995 343.745L-206.752 205.309ZM-59.2887 -76.5011C-59.1383 -76.6689 -58.9832 -76.832 -58.8237 -76.9904L-60.4337 -78.0198C-60.6101 -77.8869 -60.7823 -77.7486 -60.9499 -77.6048L-59.2887 -76.5011ZM-61.7612 -78.1439C-61.6027 -78.2862 -61.4403 -78.424 -61.2741 -78.5572L-62.7094 -79.4748C-62.8959 -79.369 -63.0795 -79.2571 -63.2597 -79.1395L-61.7612 -78.1439ZM-64.108 -79.7031C-63.9406 -79.8211 -63.7704 -79.9343 -63.5975 -80.0426L-64.8217 -80.8254C-65.0229 -80.747 -65.2209 -80.6624 -65.4154 -80.5717L-64.108 -79.7031ZM-66.3209 -81.1734C-66.1443 -81.2669 -65.9648 -81.3557 -65.7826 -81.4397L-66.6713 -82.008C-66.8157 -81.9782 -66.9598 -81.945 -67.1036 -81.9086C-67.1812 -81.889 -67.2584 -81.8686 -67.3352 -81.8473L-66.3209 -81.1734ZM-68.3387 -82.514C-68.1739 -82.5728 -68.0072 -82.6278 -67.8388 -82.6788C-67.9968 -82.7554 -68.1565 -82.8273 -68.3178 -82.8944C-68.5059 -82.8933 -68.6937 -82.8866 -68.881 -82.8743L-68.3387 -82.514ZM-243.079 194.163C-243.179 192.956 -243.048 191.762 -242.697 190.629C-242.601 190.695 -242.504 190.76 -242.405 190.823L-236.801 194.406L-239.55 199.001C-239.785 199.395 -239.993 199.801 -240.174 200.215C-241.833 198.637 -242.886 196.48 -243.079 194.163ZM-238.738 199.489L-236.003 194.916L-230.045 198.725L-233.441 204.601L-238.638 201.399C-238.909 201.232 -239.169 201.052 -239.419 200.86C-239.23 200.39 -239.003 199.931 -238.738 199.489ZM-232.639 205.096L-229.25 199.234L-223.472 202.928L-226.724 208.74L-232.639 205.096ZM-225.921 209.235L-222.677 203.436L-217.067 207.023L-220.182 212.772L-225.921 209.235ZM-219.38 213.266L-216.272 207.531L-210.819 211.018L-213.806 216.7L-219.38 213.266ZM-213.001 217.197L-210.021 211.528L14.9902 355.391C19.6804 358.386 25.9412 357.022 28.9497 352.342L194.064 95.5517C195.275 93.6723 195.817 91.5091 195.632 89.2875C195.369 86.129 193.687 83.3391 191.016 81.6298L-57.2656 -77.1115C-57.1101 -77.2348 -56.9511 -77.3539 -56.7887 -77.4685L204.186 83.3515C206.722 84.9147 208.38 87.6196 208.627 90.5874C208.794 92.6019 208.317 94.5809 207.249 96.3039L41.8528 363.183C40.5321 365.319 38.4475 366.815 35.9952 367.395C33.547 367.973 31.0155 367.566 28.8705 366.242L-213.001 217.197ZM-57.6573 -78.0038C-57.8092 -77.8887 -57.9581 -77.7699 -58.104 -77.6475L-59.5858 -78.5949C-59.4212 -78.6952 -59.2536 -78.791 -59.083 -78.8824L-57.6573 -78.0038ZM-59.9959 -79.4449C-60.1526 -79.3512 -60.3069 -79.2539 -60.4587 -79.153L-61.728 -79.9646C-61.5506 -80.0416 -61.3712 -80.1137 -61.19 -80.1807L-59.9959 -79.4449ZM-62.1845 -80.7936C-62.3472 -80.7214 -62.5084 -80.6453 -62.6677 -80.5654L-63.6594 -81.1994C-63.4608 -81.2505 -63.2615 -81.2954 -63.0617 -81.3341L-62.1845 -80.7936ZM-64.27 -82.0065C-64.4167 -81.9634 -64.5621 -81.9174 -64.7061 -81.8686L-65.2184 -82.1962C-65.0575 -82.2048 -64.8968 -82.2093 -64.7362 -82.2099C-64.5797 -82.1466 -64.4242 -82.0788 -64.27 -82.0065ZM-239.74 201.793C-240.059 202.905 -240.175 204.069 -240.077 205.242C-239.885 207.566 -238.856 209.723 -237.228 211.334C-237.046 210.897 -236.834 210.469 -236.593 210.053L-233.912 205.415L-239.131 202.199C-239.34 202.07 -239.543 201.935 -239.74 201.793ZM-233.109 205.909L-235.779 210.528C-236.054 211.004 -236.288 211.497 -236.479 212.003C-236.131 212.282 -235.762 212.54 -235.373 212.771L-230.575 215.625L-227.183 209.561L-233.109 205.909ZM-226.381 210.056L-229.766 216.106L-223.885 219.604L-220.63 213.599L-226.381 210.056ZM-219.828 214.093L-223.076 220.085L-217.369 223.479L-214.244 217.534L-219.828 214.093ZM-213.439 218.03L-216.557 223.962L42.2482 377.886C44.4767 379.207 47.0885 379.588 49.601 378.955C52.1177 378.321 54.2341 376.746 55.5649 374.524L221.236 97.5617C222.28 95.8166 222.743 93.8267 222.575 91.8082L222.571 91.8046C222.313 88.6873 220.553 85.8738 217.866 84.2754L-55.444 -78.2779C-55.6006 -78.1985 -55.7549 -78.1156 -55.9069 -78.029L204.683 82.5512C207.473 84.2665 209.296 87.2437 209.567 90.5058C209.752 92.7233 209.228 94.8967 208.053 96.7926L42.6557 363.668C41.1994 366.022 38.9073 367.666 36.2108 368.301C33.5101 368.937 30.7266 368.49 28.372 367.034L-213.439 218.03ZM-56.8128 -78.5872C-56.6737 -78.6745 -56.5327 -78.7589 -56.3898 -78.8404L-57.5743 -79.545C-57.7402 -79.4869 -57.9041 -79.4251 -58.0659 -79.3594L-56.8128 -78.5872ZM-59.0369 -79.9577C-58.8927 -80.0263 -58.7469 -80.0919 -58.5995 -80.1547L-59.4453 -80.6577C-59.6273 -80.6247 -59.8084 -80.5867 -59.9883 -80.544L-59.0369 -79.9577ZM-61.0791 -81.2162C-60.9512 -81.2576 -60.8225 -81.2968 -60.6932 -81.3336C-60.8351 -81.3985 -60.9781 -81.4598 -61.1222 -81.5176C-61.2664 -81.5181 -61.4108 -81.5154 -61.5553 -81.5097L-61.0791 -81.2162ZM-237.084 216.319C-237.179 215.179 -237.077 214.045 -236.786 212.957C-236.491 213.178 -236.182 213.384 -235.862 213.575L-231.034 216.446L-233.641 221.105C-233.887 221.543 -234.102 221.995 -234.285 222.456C-235.884 220.817 -236.89 218.655 -237.084 216.319ZM-232.82 221.566L-230.225 216.927L-224.333 220.431L-227.714 226.668L-232.117 224.137C-232.623 223.846 -233.098 223.514 -233.539 223.146C-233.346 222.604 -233.106 222.076 -232.82 221.566ZM-226.898 227.137L-223.524 220.913L-217.807 224.313L-221.057 230.494L-226.898 227.137ZM-220.238 230.965L-216.995 224.796L41.76 378.693C44.2022 380.147 47.0656 380.562 49.8254 379.865C52.5857 379.171 54.9091 377.443 56.3673 375.005L222.038 98.0421C223.182 96.1252 223.692 93.9409 223.507 91.7276C223.225 88.3119 221.296 85.2266 218.347 83.473L-54.3948 -78.742C-54.2487 -78.7976 -54.1011 -78.8504 -53.9519 -78.9001L231.551 85.2029C234.389 86.8367 236.247 89.7592 236.518 93.0213L236.515 93.0259C236.679 95.0492 236.23 97.0498 235.21 98.817L69.2606 385.868C66.5094 390.628 60.3883 392.268 55.6171 389.526L-220.238 230.965ZM-55.0139 -79.5105C-55.1453 -79.4567 -55.2755 -79.4007 -55.4044 -79.3424L-56.3367 -79.8969C-56.1755 -79.9326 -56.014 -79.9643 -55.8522 -79.9923L-55.0139 -79.5105ZM-57.3541 -80.6031C-57.3917 -80.5919 -57.4292 -80.5806 -57.4667 -80.569L-57.8894 -80.8204C-57.7653 -80.8239 -57.641 -80.8252 -57.5166 -80.8243C-57.3893 -80.7741 -57.2626 -80.7211 -57.1369 -80.6655C-57.2094 -80.6455 -57.2818 -80.6246 -57.3541 -80.6031ZM-233.83 224.115C-234.094 225.181 -234.184 226.286 -234.091 227.395C-233.897 229.742 -232.911 231.91 -231.338 233.576C-231.155 233.092 -230.938 232.618 -230.689 232.157L-228.16 227.492L-232.588 224.947C-233.024 224.696 -233.439 224.418 -233.83 224.115ZM-227.344 227.961L-229.861 232.605C-230.155 233.148 -230.4 233.712 -230.593 234.289C-230.063 234.747 -229.483 235.154 -228.857 235.502L-224.858 237.726L-221.493 231.324L-227.344 227.961ZM-220.674 231.795L-224.033 238.185L68.986 401.167C71.3837 402.5 74.1551 402.819 76.7957 402.073C79.4364 401.327 81.6252 399.596 82.9639 397.206L249.192 100.071C250.188 98.286 250.628 96.274 250.463 94.2425C250.181 90.831 248.225 87.7952 245.232 86.1309L-52.2427 -79.3223C-52.385 -79.2991 -52.5271 -79.2729 -52.669 -79.2439L232.018 84.3939C235.127 86.1818 237.158 89.3797 237.452 92.9489C237.632 95.1629 237.143 97.3527 236.023 99.2876L70.0742 386.339C67.0615 391.546 60.3619 393.347 55.1429 390.345L-220.674 231.795ZM-53.8451 -79.92L-54.2369 -80.1452C-54.1355 -80.1469 -54.0342 -80.1472 -53.9329 -80.146C-53.8108 -80.0991 -53.6892 -80.0497 -53.5682 -79.9978C-53.6606 -79.973 -53.753 -79.9471 -53.8451 -79.92ZM-231.098 238.467C-231.186 237.393 -231.108 236.32 -230.871 235.281C-230.388 235.667 -229.869 236.016 -229.318 236.323L-225.296 238.56L-227.74 243.21C-227.993 243.691 -228.21 244.186 -228.393 244.691C-229.938 243 -230.904 240.827 -231.098 238.467ZM-226.902 243.644L-224.471 239.019L68.5365 401.982C71.1504 403.434 74.1775 403.788 77.0603 402.969C79.9436 402.155 82.3346 400.269 83.7962 397.658L250.024 100.523C251.113 98.5749 251.592 96.3737 251.407 94.1603C251.098 90.434 248.964 87.1233 245.693 85.3058L-50.5533 -79.464C-50.4807 -79.4644 -50.4081 -79.464 -50.3355 -79.4629C-49.8981 -79.297 -49.469 -79.1011 -49.0506 -78.8755L258.908 87.0553C262.06 88.7539 264.117 91.8941 264.411 95.4592L264.411 95.4633C264.581 97.4943 264.151 99.5217 263.174 101.325L96.6679 408.549C93.9019 413.654 87.4839 415.562 82.3633 412.806L-225.597 246.867C-226.345 246.465 -227.031 245.981 -227.647 245.43C-227.454 244.817 -227.205 244.22 -226.902 243.644ZM-227.913 246.444C-227.339 246.917 -226.714 247.338 -226.044 247.699L81.92 413.637C87.4952 416.641 94.4902 414.56 97.5037 408.996L264.01 101.772C265.075 99.8065 265.536 97.5951 265.356 95.3812C265.031 91.5017 262.791 88.0789 259.361 86.2313L-47.1721 -78.935C-46.5954 -78.747 -46.0305 -78.5094 -45.4827 -78.2224L272.586 87.9879C275.892 89.713 278.051 92.9659 278.359 96.68L278.363 96.6794C278.533 98.7145 278.118 100.757 277.16 102.579L110.375 419.887C109.029 422.445 106.767 424.328 104.003 425.19C101.235 426.052 98.3025 425.788 95.7364 424.446L-222.336 258.24C-225.638 256.511 -227.797 253.262 -228.105 249.544C-228.193 248.501 -228.127 247.458 -227.913 246.444Z" fill="white" fill-opacity="0.1"/>
</svg>
